<?xml version="1.0" encoding="UTF-8"?>
<svg xmlns="http://www.w3.org/2000/svg" xmlns:xlink="http://www.w3.org/1999/xlink" width="810pt" height="809.999993pt" viewBox="0 0 810 809.999993" version="1.2">
<defs>
<clipPath id="clip1">
  <path d="M 238.671875 223 L 571.671875 223 L 571.671875 578 L 238.671875 578 Z M 238.671875 223 "/>
</clipPath>
</defs>
<g id="surface1">
<path style=" stroke:none;fill-rule:nonzero;fill:rgb(36.859131%,9.01947%,92.158508%);fill-opacity:1;" d="M 244.148438 419.265625 C 246.070312 420.488281 263.695312 434.070312 271.898438 443.304688 C 280.09375 452.53125 301.742188 468.214844 303.484375 474.3125 C 305.230469 480.402344 315.707031 492.601562 322.332031 500.441406 C 328.960938 508.28125 356.582031 535.277344 362.824219 541.894531 C 405.171875 586.765625 466.628906 579.507812 484.558594 555.359375 C 492.464844 528.441406 509.925781 485.902344 508.898438 453.761719 C 508.898438 453.761719 506.453125 437.378906 511.6875 429.804688 C 516.921875 422.230469 526.347656 402.628906 537.871094 386.691406 C 537.871094 386.691406 543.101562 375.539062 548.164062 369.265625 C 553.226562 363 566.140625 341.925781 567.710938 338.089844 C 569.285156 334.265625 571.550781 327.46875 562.996094 320.503906 C 562.996094 320.503906 551.652344 313.011719 539.613281 335.300781 C 527.566406 357.605469 527.398438 353.941406 525.824219 356.730469 C 524.253906 359.519531 510.125 373.800781 509.765625 375.019531 C 509.421875 376.242188 493.714844 402.714844 486.035156 400.105469 C 478.355469 397.492188 472.066406 391.914062 473.816406 384.429688 C 475.566406 376.933594 479.398438 357.082031 480.101562 352.375 C 480.800781 347.671875 482.542969 336.523438 482.542969 334.785156 C 482.542969 333.046875 484.289062 309.523438 485.683594 302.382812 C 487.089844 295.242188 487.433594 276.257812 488.652344 271.546875 C 489.878906 266.851562 487.777344 252.566406 475.210938 251.699219 C 462.652344 250.820312 459.339844 260.402344 459.339844 273.121094 C 459.339844 285.832031 452.523438 323.285156 451.65625 328.859375 C 450.78125 334.433594 447.292969 355.6875 447.46875 358.996094 C 447.644531 362.304688 446.765625 375.539062 440.832031 374.5 C 434.898438 373.453125 433.5 366.488281 434.035156 353.769531 C 434.546875 341.058594 434.515625 328.167969 433.925781 322.414062 C 433.328125 316.667969 427.921875 274.6875 427.921875 271.03125 C 427.921875 267.375 428.269531 241.769531 427.921875 236.886719 C 427.570312 232.015625 421.636719 223.820312 410.640625 225.742188 C 399.652344 227.648438 396.332031 236.015625 396.507812 250.480469 C 396.679688 264.9375 396.144531 305.695312 396.496094 316.667969 C 396.851562 327.644531 404.707031 371.367188 399.820312 371.710938 C 394.933594 372.0625 385.335938 376.933594 378.527344 347.671875 C 371.722656 318.410156 358.460938 287.402344 355.320312 275.035156 C 352.175781 262.667969 350.253906 245.074219 333.332031 249.953125 C 316.402344 254.835938 327.046875 289.316406 328.617188 297.332031 C 330.191406 305.347656 341.1875 346.804688 344.5 356.730469 C 347.8125 366.65625 356.71875 385.300781 355.320312 396.625 C 353.921875 407.941406 350.433594 431.460938 349.035156 434.246094 C 347.644531 437.03125 344.851562 451.492188 339.433594 450.269531 C 334.023438 449.054688 330.886719 453.054688 317.097656 435.988281 C 303.308594 418.917969 287.605469 400.976562 266.496094 398.535156 C 245.367188 396.101562 239.433594 405.507812 241.527344 416.65625 C 241.527344 416.65625 242.230469 418.042969 244.148438 419.265625 "/>
<g clip-path="url(#clip1)" clip-rule="nonzero">
<path style=" stroke:none;fill-rule:nonzero;fill:rgb(0%,0%,0%);fill-opacity:1;" d="M 244.148438 419.265625 L 242.832031 421.324219 C 242.878906 421.355469 243.046875 421.46875 243.261719 421.621094 C 244.089844 422.214844 245.742188 423.464844 247.839844 425.105469 C 250.984375 427.574219 255.152344 430.964844 259.234375 434.519531 C 263.308594 438.074219 267.304688 441.820312 270.0625 444.925781 C 272.238281 447.371094 275.175781 450.117188 278.414062 453.007812 C 283.265625 457.335938 288.796875 461.96875 293.226562 466.050781 C 295.4375 468.085938 297.375 469.988281 298.785156 471.589844 C 299.488281 472.390625 300.058594 473.117188 300.460938 473.710938 C 300.863281 474.308594 301.082031 474.789062 301.128906 474.984375 C 301.6875 476.910156 302.765625 478.929688 304.160156 481.160156 C 306.25 484.488281 309.074219 488.210938 312.007812 491.867188 C 314.941406 495.515625 317.984375 499.082031 320.460938 502.019531 C 322.207031 504.078125 325.183594 507.238281 328.816406 510.996094 C 334.265625 516.621094 341.164062 523.535156 347.285156 529.660156 C 350.339844 532.726562 353.210938 535.597656 355.597656 538.003906 C 357.984375 540.410156 359.90625 542.367188 361.042969 543.570312 C 372.347656 555.546875 385.015625 563.917969 397.886719 569.28125 C 410.753906 574.640625 423.816406 577.003906 435.953125 577.003906 C 447.03125 577.003906 457.339844 575.039062 466.050781 571.550781 C 474.757812 568.058594 481.890625 563.042969 486.527344 556.816406 C 486.699219 556.578125 486.828125 556.324219 486.910156 556.046875 C 490.710938 543.089844 496.816406 526.292969 501.976562 508.734375 C 507.140625 491.167969 511.382812 472.828125 511.390625 456.515625 C 511.390625 455.5625 511.375 454.617188 511.34375 453.679688 C 511.339844 453.582031 511.332031 453.5 511.320312 453.398438 L 511.3125 453.367188 C 511.261719 453.003906 510.773438 449.460938 510.777344 445.136719 C 510.773438 442.671875 510.933594 439.949219 511.402344 437.457031 C 511.855469 434.964844 512.640625 432.71875 513.703125 431.195312 C 515.097656 429.179688 516.679688 426.5 518.496094 423.324219 C 521.210938 418.566406 524.417969 412.71875 528.015625 406.574219 C 531.617188 400.433594 535.605469 394.003906 539.859375 388.117188 C 539.941406 388.003906 540.027344 387.859375 540.089844 387.726562 L 540.144531 387.609375 C 540.425781 387.019531 541.777344 384.199219 543.636719 380.832031 C 545.484375 377.464844 547.859375 373.53125 550.074219 370.800781 C 551.429688 369.117188 553.199219 366.597656 555.167969 363.644531 C 558.117188 359.226562 561.480469 353.875 564.265625 349.246094 C 565.664062 346.929688 566.910156 344.800781 567.894531 343.046875 C 568.382812 342.171875 568.8125 341.394531 569.160156 340.722656 C 569.507812 340.050781 569.777344 339.503906 569.972656 339.015625 L 569.972656 339.019531 C 570.691406 337.273438 571.652344 334.722656 571.65625 331.644531 C 571.660156 329.648438 571.234375 327.429688 570.101562 325.203125 C 568.976562 322.972656 567.179688 320.75 564.546875 318.609375 L 564.347656 318.464844 C 564.21875 318.378906 563.601562 317.984375 562.546875 317.601562 C 561.5 317.21875 560.011719 316.847656 558.191406 316.847656 C 555.480469 316.835938 552.058594 317.703125 548.492188 320.328125 C 544.917969 322.945312 541.179688 327.253906 537.457031 334.144531 C 531.46875 345.234375 528.441406 349.820312 526.863281 351.828125 C 526.472656 352.328125 526.167969 352.667969 525.929688 352.921875 C 525.5625 353.304688 525.3125 353.507812 524.917969 353.898438 C 524.519531 354.285156 524.066406 354.851562 523.691406 355.53125 C 523.675781 355.566406 523.570312 355.726562 523.414062 355.933594 C 523.121094 356.335938 522.640625 356.929688 522.046875 357.621094 C 519.96875 360.054688 516.503906 363.757812 513.539062 366.964844 C 512.054688 368.570312 510.695312 370.046875 509.660156 371.222656 C 509.144531 371.804688 508.710938 372.308594 508.367188 372.738281 C 508.195312 372.953125 508.046875 373.152344 507.902344 373.359375 C 507.828125 373.464844 507.757812 373.578125 507.683594 373.714844 C 507.605469 373.859375 507.515625 374.011719 507.414062 374.335938 L 507.410156 374.359375 L 509.109375 374.835938 L 507.472656 374.175781 C 507.464844 374.199219 507.445312 374.234375 507.410156 374.359375 L 509.109375 374.835938 L 507.472656 374.175781 L 508.003906 374.390625 L 507.480469 374.160156 L 507.472656 374.175781 L 508.003906 374.390625 L 507.480469 374.160156 C 507.476562 374.171875 507.378906 374.363281 507.242188 374.621094 C 506.714844 375.601562 505.503906 377.648438 503.917969 380.09375 C 501.53125 383.773438 498.246094 388.414062 494.980469 392.03125 C 493.355469 393.839844 491.726562 395.390625 490.300781 396.414062 C 489.589844 396.929688 488.933594 397.304688 488.390625 397.535156 C 487.84375 397.769531 487.425781 397.84375 487.164062 397.84375 C 487.015625 397.84375 486.910156 397.820312 486.824219 397.792969 C 483.695312 396.734375 480.867188 395.128906 478.941406 393.234375 C 477.976562 392.289062 477.230469 391.28125 476.730469 390.234375 C 476.234375 389.183594 475.972656 388.101562 475.96875 386.917969 C 475.96875 386.304688 476.042969 385.667969 476.199219 384.984375 C 477.089844 381.167969 478.488281 374.332031 479.753906 367.824219 C 480.390625 364.574219 480.988281 361.40625 481.480469 358.757812 C 481.964844 356.101562 482.339844 353.976562 482.523438 352.734375 C 482.871094 350.394531 483.484375 346.421875 484.007812 342.820312 C 484.273438 341.015625 484.511719 339.300781 484.6875 337.910156 C 484.78125 337.214844 484.851562 336.605469 484.902344 336.09375 C 484.957031 335.570312 484.992188 335.183594 484.992188 334.785156 C 484.992188 334.765625 485 334.578125 485.011719 334.328125 C 485.054688 333.367188 485.195312 331.292969 485.394531 328.660156 C 485.691406 324.699219 486.128906 319.445312 486.609375 314.574219 C 486.851562 312.136719 487.101562 309.792969 487.355469 307.761719 C 487.609375 305.730469 487.859375 304.003906 488.085938 302.851562 C 488.46875 300.894531 488.753906 298.324219 489.007812 295.425781 C 489.382812 291.089844 489.679688 286.042969 489.988281 281.664062 C 490.144531 279.476562 490.304688 277.453125 490.480469 275.785156 C 490.570312 274.953125 490.660156 274.210938 490.753906 273.589844 C 490.84375 272.972656 490.945312 272.472656 491.023438 272.164062 C 491.285156 271.140625 491.402344 269.996094 491.402344 268.710938 C 491.402344 266.992188 491.183594 265.042969 490.667969 263.015625 C 489.898438 259.984375 488.472656 256.765625 485.992188 254.140625 C 484.757812 252.824219 483.253906 251.675781 481.476562 250.820312 C 479.699219 249.964844 477.65625 249.414062 475.386719 249.257812 C 474.796875 249.21875 474.226562 249.199219 473.664062 249.199219 C 470.511719 249.195312 467.75 249.859375 465.453125 251.160156 C 463.734375 252.132812 462.304688 253.457031 461.171875 255.003906 C 459.476562 257.324219 458.425781 260.113281 457.777344 263.167969 C 457.136719 266.230469 456.890625 269.582031 456.890625 273.121094 C 456.890625 276.097656 456.476562 280.78125 455.828125 286.117188 C 454.859375 294.132812 453.375 303.679688 452.050781 311.730469 C 451.390625 315.761719 450.769531 319.414062 450.277344 322.328125 C 449.777344 325.242188 449.40625 327.394531 449.238281 328.488281 L 449.238281 328.480469 C 448.816406 331.1875 447.761719 337.648438 446.816406 343.945312 C 446.34375 347.09375 445.898438 350.203125 445.566406 352.800781 C 445.402344 354.097656 445.265625 355.265625 445.167969 356.261719 C 445.074219 357.261719 445.011719 358.058594 445.011719 358.722656 C 445.011719 358.855469 445.011719 358.988281 445.023438 359.136719 L 445.019531 359.128906 C 445.03125 359.3125 445.039062 359.570312 445.039062 359.875 C 445.046875 361.730469 444.773438 365.292969 443.980469 368.101562 C 443.59375 369.507812 443.054688 370.714844 442.546875 371.375 C 442.296875 371.710938 442.070312 371.902344 441.910156 371.992188 C 441.746094 372.085938 441.660156 372.105469 441.480469 372.113281 C 441.417969 372.113281 441.347656 372.105469 441.253906 372.089844 C 440.347656 371.921875 439.742188 371.621094 439.195312 371.144531 C 438.785156 370.78125 438.40625 370.289062 438.050781 369.601562 C 437.519531 368.578125 437.082031 367.109375 436.796875 365.21875 C 436.515625 363.324219 436.375 361.023438 436.375 358.335938 C 436.375 356.949219 436.410156 355.457031 436.480469 353.875 L 436.480469 353.871094 C 436.722656 347.882812 436.84375 341.859375 436.84375 336.542969 C 436.84375 330.496094 436.691406 325.398438 436.359375 322.164062 C 436.203125 320.671875 435.757812 316.984375 435.164062 312.179688 C 434.277344 304.972656 433.074219 295.300781 432.09375 287.09375 C 431.605469 282.988281 431.167969 279.25 430.855469 276.378906 C 430.703125 274.9375 430.578125 273.722656 430.492188 272.789062 C 430.449219 272.324219 430.417969 271.929688 430.398438 271.625 C 430.378906 271.324219 430.367188 271.097656 430.371094 271.03125 C 430.371094 269.847656 430.410156 266.175781 430.445312 261.65625 C 430.484375 257.140625 430.523438 251.761719 430.523438 247.097656 C 430.523438 244.765625 430.515625 242.609375 430.488281 240.824219 C 430.464844 239.03125 430.425781 237.636719 430.363281 236.714844 C 430.25 235.222656 429.792969 233.691406 429.039062 232.167969 C 427.902344 229.886719 426.070312 227.625 423.519531 225.894531 C 420.96875 224.167969 417.683594 223.007812 413.84375 223.011719 C 412.679688 223.011719 411.46875 223.113281 410.21875 223.335938 C 407.273438 223.84375 404.703125 224.804688 402.542969 226.257812 C 400.925781 227.339844 399.550781 228.699219 398.441406 230.273438 C 396.769531 232.636719 395.679688 235.449219 395.003906 238.640625 C 394.328125 241.835938 394.050781 245.417969 394.050781 249.414062 C 394.050781 249.773438 394.054688 250.140625 394.058594 250.511719 C 394.082031 252.613281 394.09375 255.292969 394.09375 258.359375 C 394.09375 270.84375 393.925781 289.785156 393.925781 303.269531 C 393.925781 309.078125 393.957031 313.863281 394.046875 316.746094 C 394.125 319.007812 394.472656 322.316406 394.945312 326.300781 C 395.664062 332.265625 396.671875 339.683594 397.5 346.785156 C 398.328125 353.878906 398.972656 360.683594 398.96875 365.222656 C 398.976562 367.078125 398.847656 368.566406 398.660156 369.363281 C 398.621094 369.554688 398.574219 369.707031 398.539062 369.792969 L 398.511719 369.867188 L 398.5 369.882812 L 399.335938 370.34375 L 398.757812 369.613281 C 398.558594 369.769531 398.503906 369.878906 398.5 369.882812 L 399.335938 370.34375 L 398.757812 369.613281 L 399.761719 370.882812 L 399.648438 369.273438 C 399.308594 369.289062 398.941406 369.453125 398.757812 369.613281 L 399.761719 370.882812 L 399.648438 369.273438 L 399.644531 369.273438 C 398.808594 369.335938 398.039062 369.472656 397.269531 369.582031 C 396.507812 369.695312 395.757812 369.777344 395.023438 369.777344 C 394.015625 369.777344 393.058594 369.628906 392.03125 369.171875 C 391.261719 368.824219 390.445312 368.289062 389.550781 367.417969 C 388.21875 366.109375 386.738281 364.007812 385.253906 360.734375 C 383.769531 357.460938 382.289062 353.03125 380.914062 347.117188 C 377.472656 332.332031 372.429688 317.195312 367.859375 304.207031 C 365.574219 297.71875 363.40625 291.761719 361.625 286.675781 C 359.839844 281.601562 358.4375 277.371094 357.695312 274.433594 C 357.015625 271.769531 356.378906 268.78125 355.613281 265.773438 C 354.453125 261.269531 353.050781 256.71875 350.511719 253.046875 C 349.242188 251.21875 347.660156 249.601562 345.671875 248.457031 C 343.683594 247.308594 341.316406 246.671875 338.675781 246.675781 C 336.8125 246.675781 334.8125 246.984375 332.652344 247.605469 C 330.484375 248.222656 328.617188 249.292969 327.117188 250.691406 C 324.859375 252.789062 323.441406 255.539062 322.59375 258.535156 C 321.738281 261.535156 321.425781 264.820312 321.425781 268.191406 C 321.425781 274.15625 322.421875 280.425781 323.507812 285.804688 C 324.054688 288.488281 324.625 290.945312 325.113281 293.011719 C 325.605469 295.074219 326.007812 296.757812 326.214844 297.800781 C 326.421875 298.867188 326.769531 300.40625 327.234375 302.339844 C 328.847656 309.109375 331.84375 320.679688 334.808594 331.671875 C 336.289062 337.167969 337.757812 342.511719 339.042969 347.035156 C 340.332031 351.5625 341.425781 355.25 342.175781 357.5 C 343.769531 362.265625 346.5 368.710938 348.824219 375.382812 C 349.984375 378.714844 351.046875 382.089844 351.804688 385.285156 C 352.5625 388.484375 353.019531 391.503906 353.019531 394.074219 C 353.019531 394.875 352.976562 395.625 352.890625 396.328125 C 352.195312 401.945312 350.976562 410.640625 349.761719 418.25 C 349.152344 422.050781 348.542969 425.585938 348.007812 428.3125 C 347.738281 429.675781 347.492188 430.835938 347.273438 431.703125 C 347.167969 432.140625 347.066406 432.5 346.980469 432.761719 C 346.945312 432.890625 346.90625 433 346.882812 433.066406 L 346.847656 433.144531 L 346.84375 433.160156 L 346.988281 433.226562 L 346.84375 433.15625 L 346.84375 433.160156 L 346.988281 433.226562 L 346.84375 433.15625 C 346.578125 433.703125 346.378906 434.257812 346.152344 434.925781 C 345.761719 436.082031 345.332031 437.53125 344.828125 439.074219 C 344.082031 441.378906 343.152344 443.898438 342.144531 445.644531 C 341.644531 446.519531 341.125 447.1875 340.726562 447.535156 C 340.527344 447.710938 340.367188 447.808594 340.269531 447.847656 C 340.164062 447.894531 340.121094 447.898438 340.078125 447.898438 L 339.96875 447.882812 C 338.277344 447.507812 336.875 447.546875 335.71875 447.484375 C 334.847656 447.441406 334.085938 447.363281 333.230469 447.121094 C 331.953125 446.753906 330.359375 445.992188 328.050781 444.089844 C 325.761719 442.195312 322.816406 439.171875 319.003906 434.453125 C 312.082031 425.890625 304.625 417.019531 296.113281 409.902344 C 291.851562 406.34375 287.324219 403.226562 282.453125 400.828125 C 277.578125 398.425781 272.359375 396.753906 266.773438 396.105469 C 264.417969 395.835938 262.226562 395.707031 260.1875 395.707031 C 256.550781 395.707031 253.40625 396.121094 250.695312 396.925781 C 246.636719 398.125 243.53125 400.253906 241.535156 403.050781 C 239.53125 405.84375 238.679688 409.1875 238.683594 412.617188 C 238.683594 414.09375 238.835938 415.59375 239.121094 417.105469 C 239.164062 417.328125 239.238281 417.542969 239.34375 417.75 C 239.472656 418.015625 240.421875 419.789062 242.828125 421.324219 L 244.148438 419.265625 L 245.464844 417.203125 C 244.75 416.75 244.28125 416.277344 244.007812 415.945312 C 243.867188 415.777344 243.777344 415.648438 243.730469 415.574219 L 243.691406 415.511719 L 243.40625 415.671875 L 243.695312 415.519531 L 243.691406 415.511719 L 243.40625 415.671875 L 243.695312 415.519531 L 242.199219 416.316406 L 243.714844 415.554688 L 243.695312 415.519531 L 242.199219 416.316406 L 243.714844 415.554688 L 241.527344 416.65625 L 243.933594 416.199219 C 243.699219 414.957031 243.582031 413.753906 243.582031 412.617188 C 243.582031 410.851562 243.867188 409.25 244.4375 407.855469 C 244.867188 406.804688 245.457031 405.863281 246.238281 405.011719 C 247.402344 403.742188 249.027344 402.65625 251.304688 401.863281 C 253.585938 401.070312 256.519531 400.589844 260.1875 400.59375 C 262.011719 400.59375 264.019531 400.710938 266.210938 400.964844 C 271.179688 401.535156 275.839844 403.023438 280.28125 405.210938 C 286.945312 408.484375 293.101562 413.355469 298.875 419.023438 C 304.648438 424.6875 310.035156 431.140625 315.191406 437.523438 C 318.699219 441.859375 321.558594 444.90625 324.023438 447.082031 C 325.871094 448.710938 327.5 449.851562 329.015625 450.652344 C 331.277344 451.863281 333.316406 452.234375 334.949219 452.335938 C 335.769531 452.394531 336.480469 452.402344 337.121094 452.433594 C 337.757812 452.46875 338.320312 452.527344 338.894531 452.652344 C 339.28125 452.742188 339.679688 452.785156 340.078125 452.785156 C 341.257812 452.789062 342.351562 452.371094 343.210938 451.785156 C 343.96875 451.273438 344.582031 450.644531 345.128906 449.960938 C 346.078125 448.761719 346.824219 447.371094 347.488281 445.910156 C 348.46875 443.722656 349.242188 441.363281 349.878906 439.371094 C 350.191406 438.375 350.46875 437.472656 350.703125 436.75 C 350.824219 436.394531 350.929688 436.078125 351.023438 435.832031 C 351.113281 435.585938 351.195312 435.402344 351.230469 435.339844 L 351.226562 435.339844 C 351.417969 434.953125 351.53125 434.617188 351.65625 434.214844 C 351.886719 433.480469 352.113281 432.5625 352.359375 431.453125 C 353.210938 427.570312 354.257812 421.304688 355.253906 414.800781 C 356.246094 408.304688 357.175781 401.597656 357.75 396.925781 C 357.863281 395.996094 357.917969 395.046875 357.917969 394.074219 C 357.914062 390.945312 357.386719 387.59375 356.570312 384.160156 C 355.34375 379.007812 353.46875 373.660156 351.617188 368.730469 C 349.765625 363.804688 347.929688 359.292969 346.820312 355.957031 C 346.023438 353.5625 344.714844 349.117188 343.199219 343.726562 C 340.921875 335.640625 338.164062 325.386719 335.832031 316.417969 C 334.664062 311.929688 333.601562 307.765625 332.761719 304.355469 C 331.921875 300.949219 331.296875 298.273438 331.019531 296.863281 C 330.777344 295.621094 330.367188 293.941406 329.882812 291.890625 C 329.152344 288.820312 328.257812 284.941406 327.550781 280.796875 C 326.839844 276.660156 326.320312 272.253906 326.324219 268.191406 C 326.316406 264.105469 326.863281 260.375 328.105469 257.644531 C 328.726562 256.273438 329.5 255.152344 330.449219 254.269531 C 331.402344 253.390625 332.535156 252.726562 334.007812 252.300781 C 335.808594 251.785156 337.351562 251.5625 338.675781 251.5625 C 339.925781 251.5625 340.984375 251.753906 341.914062 252.085938 C 343.527344 252.667969 344.824219 253.683594 346.003906 255.171875 C 347.757812 257.386719 349.09375 260.667969 350.144531 264.324219 C 351.210938 267.972656 352.011719 271.96875 352.945312 275.632812 C 353.769531 278.878906 355.203125 283.167969 357.003906 288.292969 C 362.394531 303.648438 371.09375 326.496094 376.144531 348.222656 C 377.414062 353.683594 378.785156 358.015625 380.242188 361.488281 C 382.425781 366.6875 384.800781 369.984375 387.394531 372.023438 C 388.683594 373.039062 390.027344 373.722656 391.332031 374.125 C 392.636719 374.53125 393.890625 374.664062 395.023438 374.664062 C 396.128906 374.664062 397.125 374.542969 397.972656 374.421875 C 398.820312 374.296875 399.527344 374.179688 399.996094 374.144531 L 399.992188 374.144531 C 400.574219 374.113281 401.164062 373.894531 401.605469 373.585938 C 401.992188 373.316406 402.285156 373 402.507812 372.695312 C 402.894531 372.152344 403.101562 371.621094 403.273438 371.082031 C 403.515625 370.269531 403.652344 369.410156 403.738281 368.441406 C 403.832031 367.472656 403.863281 366.398438 403.863281 365.222656 C 403.863281 361.910156 403.566406 357.765625 403.121094 353.230469 C 402.457031 346.4375 401.457031 338.792969 400.601562 332.070312 C 400.171875 328.703125 399.777344 325.574219 399.484375 322.910156 C 399.1875 320.246094 398.988281 318.03125 398.941406 316.589844 C 398.851562 313.832031 398.824219 309.054688 398.824219 303.269531 C 398.824219 289.820312 398.992188 270.882812 398.992188 258.359375 C 398.992188 255.28125 398.980469 252.585938 398.957031 250.449219 C 398.953125 250.097656 398.949219 249.753906 398.949219 249.414062 C 398.949219 246.0625 399.160156 243.109375 399.613281 240.582031 C 399.953125 238.683594 400.429688 237.03125 401.042969 235.621094 C 401.960938 233.492188 403.148438 231.914062 404.734375 230.699219 C 406.316406 229.496094 408.34375 228.625 411.0625 228.148438 C 412.046875 227.972656 412.972656 227.898438 413.84375 227.898438 C 415.753906 227.898438 417.394531 228.273438 418.808594 228.871094 C 420.933594 229.777344 422.574219 231.21875 423.703125 232.777344 C 424.269531 233.558594 424.695312 234.359375 424.996094 235.105469 C 425.289062 235.847656 425.441406 236.539062 425.480469 237.0625 C 425.53125 237.769531 425.570312 239.148438 425.589844 240.894531 C 425.617188 242.640625 425.625 244.78125 425.625 247.097656 C 425.625 251.738281 425.585938 257.101562 425.550781 261.617188 C 425.511719 266.136719 425.472656 269.78125 425.472656 271.03125 C 425.472656 271.398438 425.5 271.796875 425.542969 272.339844 C 425.695312 274.332031 426.109375 278.089844 426.652344 282.753906 C 427.460938 289.738281 428.566406 298.71875 429.523438 306.457031 C 430.003906 310.324219 430.441406 313.886719 430.789062 316.726562 C 431.132812 319.5625 431.386719 321.699219 431.488281 322.664062 C 431.789062 325.546875 431.949219 330.597656 431.945312 336.542969 C 431.945312 341.785156 431.828125 347.753906 431.585938 353.671875 L 431.585938 353.667969 C 431.519531 355.3125 431.480469 356.867188 431.480469 358.335938 C 431.492188 363.394531 431.890625 367.4375 433.164062 370.667969 C 433.804688 372.273438 434.703125 373.695312 435.941406 374.796875 C 437.171875 375.898438 438.726562 376.617188 440.40625 376.90625 C 440.765625 376.96875 441.125 377.003906 441.480469 377.003906 C 442.539062 377.007812 443.570312 376.699219 444.40625 376.195312 C 445.144531 375.761719 445.75 375.191406 446.25 374.578125 C 447.128906 373.496094 447.726562 372.261719 448.203125 370.957031 C 448.910156 369.007812 449.324219 366.890625 449.582031 364.933594 C 449.839844 362.96875 449.933594 361.175781 449.933594 359.875 C 449.933594 359.5 449.929688 359.164062 449.914062 358.867188 L 449.914062 358.859375 L 449.910156 358.722656 C 449.910156 358.375 449.949219 357.644531 450.042969 356.734375 C 450.355469 353.5 451.179688 347.777344 452.015625 342.320312 C 452.851562 336.855469 453.699219 331.628906 454.078125 329.238281 L 454.078125 329.230469 C 454.285156 327.890625 454.878906 324.484375 455.640625 319.996094 C 456.78125 313.242188 458.308594 303.996094 459.5625 295.214844 C 460.183594 290.828125 460.738281 286.558594 461.136719 282.761719 C 461.539062 278.964844 461.785156 275.660156 461.789062 273.121094 C 461.785156 270.175781 461.972656 267.445312 462.398438 265.058594 C 462.71875 263.261719 463.171875 261.660156 463.765625 260.296875 C 464.660156 258.25 465.820312 256.757812 467.34375 255.734375 C 468.878906 254.714844 470.859375 254.09375 473.664062 254.085938 C 474.101562 254.085938 474.5625 254.101562 475.042969 254.136719 C 477.304688 254.296875 479.050781 254.933594 480.492188 255.867188 C 481.570312 256.566406 482.476562 257.445312 483.25 258.457031 C 484.40625 259.96875 485.234375 261.785156 485.761719 263.605469 C 486.289062 265.425781 486.511719 267.257812 486.507812 268.710938 C 486.511719 269.671875 486.402344 270.480469 486.285156 270.9375 C 486.085938 271.699219 485.945312 272.574219 485.804688 273.613281 C 485.570312 275.425781 485.371094 277.699219 485.183594 280.222656 C 484.902344 284.003906 484.648438 288.324219 484.347656 292.269531 C 484.199219 294.234375 484.039062 296.113281 483.863281 297.765625 C 483.6875 299.421875 483.488281 300.859375 483.28125 301.914062 C 482.90625 303.84375 482.535156 306.675781 482.171875 309.945312 C 481.625 314.84375 481.109375 320.675781 480.730469 325.460938 C 480.539062 327.847656 480.382812 329.976562 480.269531 331.59375 C 480.21875 332.40625 480.175781 333.085938 480.144531 333.617188 C 480.128906 333.878906 480.117188 334.105469 480.109375 334.296875 C 480.101562 334.484375 480.09375 334.628906 480.09375 334.785156 C 480.097656 334.816406 480.078125 335.160156 480.035156 335.597656 C 479.871094 337.183594 479.433594 340.289062 478.960938 343.472656 C 478.496094 346.660156 477.988281 349.949219 477.679688 352.015625 C 477.515625 353.128906 477.144531 355.246094 476.664062 357.875 C 475.9375 361.816406 474.953125 366.933594 473.988281 371.753906 C 473.023438 376.578125 472.074219 381.117188 471.433594 383.875 C 471.191406 384.902344 471.074219 385.921875 471.074219 386.917969 C 471.074219 388.847656 471.523438 390.683594 472.308594 392.332031 C 473.492188 394.804688 475.382812 396.855469 477.621094 398.519531 C 479.871094 400.183594 482.484375 401.480469 485.242188 402.417969 C 485.875 402.632812 486.53125 402.730469 487.164062 402.730469 C 488.789062 402.71875 490.253906 402.15625 491.632812 401.367188 C 494.050781 399.976562 496.359375 397.800781 498.632812 395.289062 C 502.023438 391.519531 505.257812 386.980469 507.703125 383.253906 C 508.921875 381.390625 509.941406 379.734375 510.679688 378.476562 C 511.050781 377.847656 511.347656 377.320312 511.574219 376.902344 C 511.683594 376.691406 511.78125 376.515625 511.859375 376.34375 C 511.902344 376.257812 511.941406 376.175781 511.980469 376.082031 C 512.019531 375.984375 512.0625 375.890625 512.125 375.683594 L 509.765625 375.019531 L 512.117188 375.707031 L 510.421875 375.210938 L 511.949219 376.113281 C 511.964844 376.078125 512.015625 376.023438 512.117188 375.707031 L 510.421875 375.210938 L 511.949219 376.113281 L 511.558594 375.882812 L 511.941406 376.125 L 511.949219 376.113281 L 511.558594 375.882812 L 511.941406 376.125 C 511.941406 376.125 512.03125 375.992188 512.171875 375.820312 C 512.4375 375.484375 512.878906 374.964844 513.425781 374.34375 C 515.351562 372.171875 518.609375 368.714844 521.527344 365.535156 C 522.988281 363.941406 524.371094 362.414062 525.488281 361.125 C 526.042969 360.480469 526.535156 359.894531 526.941406 359.375 C 527.355469 358.847656 527.675781 358.421875 527.960938 357.929688 C 528.097656 357.683594 528.167969 357.589844 528.242188 357.503906 C 528.304688 357.429688 528.382812 357.347656 528.546875 357.195312 C 528.832031 356.929688 529.324219 356.480469 529.9375 355.785156 C 531.78125 353.671875 534.8125 349.328125 541.765625 336.460938 C 545.246094 330.023438 548.582031 326.320312 551.390625 324.269531 C 554.207031 322.21875 556.472656 321.742188 558.191406 321.734375 C 559.34375 321.734375 560.257812 321.96875 560.867188 322.191406 C 561.175781 322.304688 561.398438 322.410156 561.535156 322.480469 L 561.664062 322.554688 L 561.671875 322.558594 L 562.414062 321.382812 L 561.644531 322.542969 L 561.671875 322.558594 L 562.414062 321.382812 L 561.644531 322.542969 L 562.996094 320.503906 L 561.449219 322.398438 C 563.652344 324.191406 564.957031 325.878906 565.726562 327.402344 C 566.496094 328.933594 566.757812 330.320312 566.761719 331.644531 C 566.765625 333.679688 566.097656 335.578125 565.445312 337.164062 L 565.445312 337.167969 C 565.320312 337.480469 564.960938 338.207031 564.46875 339.117188 C 562.726562 342.359375 559.222656 348.234375 555.636719 353.917969 C 553.839844 356.769531 552.019531 359.574219 550.382812 362 C 548.746094 364.421875 547.28125 366.46875 546.257812 367.734375 C 543.554688 371.09375 540.949219 375.527344 538.964844 379.167969 C 536.992188 382.804688 535.667969 385.625 535.652344 385.65625 L 537.871094 386.691406 L 535.886719 385.261719 C 530.03125 393.359375 524.757812 402.3125 520.292969 410.179688 C 518.058594 414.113281 516.027344 417.773438 514.238281 420.90625 C 512.453125 424.03125 510.898438 426.644531 509.675781 428.417969 C 508.03125 430.804688 507.132812 433.660156 506.585938 436.566406 C 506.046875 439.472656 505.878906 442.460938 505.878906 445.136719 C 505.878906 450.128906 506.464844 454.042969 506.472656 454.117188 L 508.898438 453.761719 L 506.449219 453.835938 C 506.476562 454.71875 506.492188 455.617188 506.492188 456.515625 C 506.5 471.984375 502.390625 489.996094 497.28125 507.363281 C 492.171875 524.738281 486.085938 541.476562 482.210938 554.671875 L 484.558594 555.359375 L 482.59375 553.902344 C 478.667969 559.199219 472.289062 563.789062 464.226562 567.015625 C 456.167969 570.246094 446.449219 572.117188 435.953125 572.117188 C 424.453125 572.117188 412.019531 569.875 399.769531 564.769531 C 387.515625 559.660156 375.4375 551.695312 364.609375 540.21875 C 363.003906 538.519531 360.109375 535.597656 356.53125 532.007812 C 351.171875 526.625 344.304688 519.777344 338.160156 513.542969 C 335.085938 510.429688 332.195312 507.46875 329.769531 504.925781 C 327.347656 502.390625 325.382812 500.257812 324.203125 498.863281 C 320.886719 494.945312 316.636719 489.957031 313.023438 485.238281 C 311.222656 482.878906 309.578125 480.589844 308.308594 478.566406 C 307.035156 476.550781 306.148438 474.761719 305.835938 473.640625 L 305.839844 473.644531 C 305.65625 473.003906 305.386719 472.429688 305.0625 471.855469 C 304.453125 470.785156 303.644531 469.726562 302.660156 468.589844 C 300.945312 466.613281 298.707031 464.441406 296.1875 462.128906 C 292.410156 458.671875 288.003906 454.929688 283.925781 451.351562 C 279.855469 447.78125 276.097656 444.359375 273.726562 441.683594 C 271.585938 439.277344 268.898438 436.652344 266.023438 434.023438 C 261.710938 430.085938 256.984375 426.148438 253.140625 423.070312 C 251.21875 421.527344 249.519531 420.207031 248.203125 419.203125 C 247.542969 418.703125 246.980469 418.277344 246.527344 417.949219 C 246.070312 417.613281 245.742188 417.382812 245.460938 417.203125 L 244.148438 419.265625 "/>
</g>
</g>
</svg>
