<?xml version="1.0" encoding="UTF-8"?>
<svg xmlns="http://www.w3.org/2000/svg" xmlns:xlink="http://www.w3.org/1999/xlink" width="375pt" height="374.999991pt" viewBox="0 0 375 374.999991" version="1.2">
<defs>
<clipPath id="clip1">
  <path d="M 113 25.660156 L 281 25.660156 L 281 256 L 113 256 Z M 113 25.660156 "/>
</clipPath>
<clipPath id="clip2">
  <path d="M 10.066406 186 L 99 186 L 99 298 L 10.066406 298 Z M 10.066406 186 "/>
</clipPath>
<clipPath id="clip3">
  <path d="M 262 181 L 364.699219 181 L 364.699219 337.660156 L 262 337.660156 Z M 262 181 "/>
</clipPath>
</defs>
<g id="surface1">
<g clip-path="url(#clip1)" clip-rule="nonzero">
<path style=" stroke:none;fill-rule:nonzero;fill:rgb(100%,100%,100%);fill-opacity:1;" d="M 280.25 255.589844 L 113.800781 255.589844 L 113.800781 25.796875 L 280.25 25.796875 L 280.25 255.589844 "/>
</g>
<path style=" stroke:none;fill-rule:nonzero;fill:rgb(82.749939%,82.348633%,82.348633%);fill-opacity:1;" d="M 202.632812 58.191406 L 132.777344 58.191406 L 132.777344 43.503906 L 202.632812 43.503906 L 202.632812 58.191406 "/>
<path style=" stroke:none;fill-rule:nonzero;fill:rgb(82.749939%,82.348633%,82.348633%);fill-opacity:1;" d="M 260.417969 117.367188 L 132.777344 117.367188 L 132.777344 110.027344 L 260.417969 110.027344 L 260.417969 117.367188 "/>
<path style=" stroke:none;fill-rule:nonzero;fill:rgb(82.749939%,82.348633%,82.348633%);fill-opacity:1;" d="M 201.769531 63.804688 L 132.777344 63.804688 L 132.777344 71.152344 L 201.769531 71.152344 L 201.769531 63.804688 "/>
<path style=" stroke:none;fill-rule:nonzero;fill:rgb(82.749939%,82.348633%,82.348633%);fill-opacity:1;" d="M 260.417969 178.707031 L 132.777344 178.707031 L 132.777344 171.363281 L 260.417969 171.363281 L 260.417969 178.707031 "/>
<path style=" stroke:none;fill-rule:nonzero;fill:rgb(82.749939%,82.348633%,82.348633%);fill-opacity:1;" d="M 260.417969 196.828125 L 132.777344 196.828125 L 132.777344 189.484375 L 260.417969 189.484375 L 260.417969 196.828125 "/>
<path style=" stroke:none;fill-rule:nonzero;fill:rgb(82.749939%,82.348633%,82.348633%);fill-opacity:1;" d="M 260.417969 214.953125 L 132.777344 214.953125 L 132.777344 207.613281 L 260.417969 207.613281 L 260.417969 214.953125 "/>
<path style=" stroke:none;fill-rule:nonzero;fill:rgb(82.749939%,82.348633%,82.348633%);fill-opacity:1;" d="M 260.417969 233.074219 L 132.777344 233.074219 L 132.777344 225.734375 L 260.417969 225.734375 L 260.417969 233.074219 "/>
<path style=" stroke:none;fill-rule:nonzero;fill:rgb(82.749939%,82.348633%,82.348633%);fill-opacity:1;" d="M 260.417969 129.464844 L 213.84375 129.464844 L 213.84375 122.121094 L 260.417969 122.121094 L 260.417969 129.464844 "/>
<path style=" stroke:none;fill-rule:nonzero;fill:rgb(82.749939%,82.348633%,82.348633%);fill-opacity:1;" d="M 260.417969 142.476562 L 213.84375 142.476562 L 213.84375 135.132812 L 260.417969 135.132812 L 260.417969 142.476562 "/>
<path style=" stroke:none;fill-rule:nonzero;fill:rgb(82.749939%,82.348633%,82.348633%);fill-opacity:1;" d="M 260.417969 155.484375 L 213.84375 155.484375 L 213.84375 148.144531 L 260.417969 148.144531 L 260.417969 155.484375 "/>
<path style=" stroke:none;fill-rule:nonzero;fill:rgb(82.749939%,82.348633%,82.348633%);fill-opacity:1;" d="M 206.082031 155.484375 L 132.777344 155.484375 L 132.777344 122.121094 L 206.082031 122.121094 L 206.082031 155.484375 "/>
<path style=" stroke:none;fill-rule:nonzero;fill:rgb(82.749939%,82.348633%,82.348633%);fill-opacity:1;" d="M 260.417969 103.117188 L 213.84375 103.117188 L 213.84375 43.503906 L 260.417969 43.503906 L 260.417969 103.117188 "/>
<path style=" stroke:none;fill-rule:nonzero;fill:rgb(97.648621%,66.668701%,47.059631%);fill-opacity:1;" d="M 85.921875 226.980469 L 100.957031 218.148438 C 100.957031 218.148438 117.027344 218.667969 126.359375 212.4375 C 135.691406 206.207031 144.160156 186.433594 144.160156 186.433594 C 144.160156 186.433594 158.660156 175.03125 167.3125 168.816406 C 172.222656 165.289062 162.648438 156.355469 152.382812 161.488281 C 143.28125 166.046875 117.027344 180.242188 113.917969 178.164062 C 110.804688 176.085938 108.617188 159.125 113.800781 155.484375 C 113.800781 144.261719 113.800781 129.464844 113.800781 129.464844 C 113.800781 129.464844 93.296875 145.246094 91.625 149.082031 C 87.480469 158.605469 82.140625 182.121094 82.140625 182.121094 L 65.574219 194.882812 L 85.921875 226.980469 "/>
<g clip-path="url(#clip2)" clip-rule="nonzero">
<path style=" stroke:none;fill-rule:nonzero;fill:rgb(18.03894%,27.839661%,35.289001%);fill-opacity:1;" d="M 10.023438 297.0625 L 98.296875 226.796875 L 70.535156 186.355469 L 10.023438 221.351562 L 10.023438 297.0625 "/>
</g>
<path style=" stroke:none;fill-rule:nonzero;fill:rgb(97.648621%,66.668701%,47.059631%);fill-opacity:1;" d="M 274.074219 212.929688 L 263.667969 198.929688 C 263.667969 198.929688 248.664062 193.128906 242.5 183.746094 C 236.328125 174.363281 236.226562 152.84375 236.226562 152.84375 C 236.226562 152.84375 231.722656 139.640625 231.738281 134.457031 C 231.769531 125.375 237.972656 119.976562 237.972656 119.976562 C 237.972656 119.976562 258.535156 148.144531 261.035156 151.566406 C 264.707031 150.867188 275.992188 140.476562 272.921875 136.277344 C 271.785156 134.71875 258.195312 116.097656 254.75 111.378906 C 252.949219 111.890625 252.257812 108.359375 252.507812 104.824219 C 252.742188 101.410156 253.851562 97.996094 255.671875 98.226562 C 259.378906 98.695312 285.9375 101.734375 287.582031 105.585938 C 294.050781 120.707031 295.019531 173.101562 295.019531 173.101562 L 305.304688 191.324219 L 274.074219 212.929688 "/>
<g clip-path="url(#clip3)" clip-rule="nonzero">
<path style=" stroke:none;fill-rule:nonzero;fill:rgb(18.03894%,27.839661%,35.289001%);fill-opacity:1;" d="M 364.652344 337.597656 L 364.652344 245.921875 L 304.054688 181.535156 L 262.75 207.929688 L 356.84375 337.597656 L 364.652344 337.597656 "/>
</g>
<path style=" stroke:none;fill-rule:nonzero;fill:rgb(89.408875%,56.858826%,39.608765%);fill-opacity:1;" d="M 254.378906 119.386719 C 254.378906 126.585938 258.09375 132.421875 262.679688 132.421875 C 267.261719 132.421875 270.980469 126.585938 270.980469 119.386719 C 270.980469 112.1875 267.261719 106.355469 262.679688 106.355469 C 258.09375 106.355469 254.378906 112.1875 254.378906 119.386719 "/>
<path style=" stroke:none;fill-rule:nonzero;fill:rgb(98.429871%,78.039551%,7.449341%);fill-opacity:1;" d="M 231.25 110.769531 L 246.269531 99.769531 L 299.355469 172.484375 L 284.335938 183.488281 L 231.25 110.769531 "/>
<path style=" stroke:none;fill-rule:nonzero;fill:rgb(82.749939%,82.348633%,82.348633%);fill-opacity:1;" d="M 291.089844 192.734375 L 306.105469 181.734375 L 299.355469 172.488281 L 284.335938 183.488281 L 291.089844 192.734375 "/>
<path style=" stroke:none;fill-rule:nonzero;fill:rgb(85.099792%,23.139954%,35.289001%);fill-opacity:1;" d="M 291.085938 192.734375 L 306.105469 181.734375 C 306.105469 181.734375 308.394531 184.867188 310.914062 188.316406 C 316.058594 195.367188 301.5 207 295.894531 199.320312 C 293.800781 196.453125 291.085938 192.734375 291.085938 192.734375 "/>
<path style=" stroke:none;fill-rule:nonzero;fill:rgb(82.749939%,82.348633%,82.348633%);fill-opacity:1;" d="M 310.988281 188.421875 C 310.984375 188.417969 310.984375 188.414062 310.980469 188.410156 C 310.984375 188.414062 310.988281 188.417969 310.988281 188.421875 M 310.980469 188.40625 C 310.976562 188.40625 310.972656 188.402344 310.972656 188.394531 C 310.972656 188.402344 310.976562 188.40625 310.980469 188.40625 M 310.96875 188.394531 C 310.953125 188.371094 310.9375 188.351562 310.925781 188.332031 C 310.9375 188.351562 310.953125 188.371094 310.96875 188.394531 M 310.925781 188.328125 C 310.921875 188.324219 310.917969 188.324219 310.914062 188.316406 C 310.917969 188.324219 310.921875 188.324219 310.925781 188.328125 "/>
<path style=" stroke:none;fill-rule:nonzero;fill:rgb(70.588684%,18.818665%,28.239441%);fill-opacity:1;" d="M 291.21875 192.914062 C 291.136719 192.800781 291.085938 192.734375 291.085938 192.734375 L 306.105469 181.734375 C 306.105469 181.734375 308.394531 184.867188 310.914062 188.316406 C 310.917969 188.324219 310.921875 188.324219 310.925781 188.328125 C 310.925781 188.328125 310.925781 188.332031 310.925781 188.332031 C 310.9375 188.351562 310.953125 188.371094 310.96875 188.394531 C 310.972656 188.394531 310.972656 188.394531 310.972656 188.394531 C 310.972656 188.402344 310.976562 188.40625 310.980469 188.40625 C 310.980469 188.40625 310.980469 188.410156 310.980469 188.410156 C 310.984375 188.414062 310.984375 188.417969 310.988281 188.421875 C 311.695312 189.4375 311.996094 190.542969 311.988281 191.667969 C 309.171875 190.570312 305.933594 190.105469 302.851562 190.105469 C 300.402344 190.105469 298.0625 190.398438 296.113281 190.894531 C 294.421875 191.324219 292.761719 192.019531 291.21875 192.914062 "/>
<path style=" stroke:none;fill-rule:nonzero;fill:rgb(74.119568%,73.728943%,74.119568%);fill-opacity:1;" d="M 304.964844 180.164062 L 303.589844 178.285156 L 304.964844 180.164062 "/>
<path style=" stroke:none;fill-rule:nonzero;fill:rgb(72.158813%,49.01886%,34.118652%);fill-opacity:1;" d="M 289.636719 190.746094 L 288.570312 189.289062 L 289.636719 190.746094 "/>
<path style=" stroke:none;fill-rule:nonzero;fill:rgb(13.729858%,21.179199%,26.669312%);fill-opacity:1;" d="M 289.941406 191.167969 L 289.636719 190.746094 L 289.941406 191.167969 "/>
<path style=" stroke:none;fill-rule:nonzero;fill:rgb(61.959839%,61.569214%,61.569214%);fill-opacity:1;" d="M 289.941406 191.167969 L 289.636719 190.746094 L 288.570312 189.289062 L 303.589844 178.285156 L 304.964844 180.164062 L 289.941406 191.167969 "/>
<path style=" stroke:none;fill-rule:nonzero;fill:rgb(74.119568%,73.728943%,74.119568%);fill-opacity:1;" d="M 301.875 175.933594 L 300.5 174.054688 L 300.503906 174.054688 L 301.875 175.933594 "/>
<path style=" stroke:none;fill-rule:nonzero;fill:rgb(61.959839%,61.569214%,61.569214%);fill-opacity:1;" d="M 287.359375 187.628906 L 285.484375 185.054688 L 300.5 174.054688 L 301.875 175.933594 L 286.855469 186.933594 L 287.359375 187.628906 "/>
<path style=" stroke:none;fill-rule:nonzero;fill:rgb(72.158813%,49.01886%,34.118652%);fill-opacity:1;" d="M 288.570312 189.289062 L 287.492188 187.8125 L 287.863281 188.324219 L 288.570312 189.289062 "/>
<path style=" stroke:none;fill-rule:nonzero;fill:rgb(61.959839%,61.569214%,61.569214%);fill-opacity:1;" d="M 287.863281 188.324219 L 287.492188 187.8125 L 287.359375 187.628906 L 287.863281 188.324219 "/>
<path style=" stroke:none;fill-rule:nonzero;fill:rgb(74.119568%,73.728943%,74.119568%);fill-opacity:1;" d="M 303.589844 178.285156 L 301.875 175.933594 L 303.589844 178.285156 "/>
<path style=" stroke:none;fill-rule:nonzero;fill:rgb(56.469727%,55.688477%,55.688477%);fill-opacity:1;" d="M 303.589844 178.285156 L 301.875 175.933594 L 303.589844 178.285156 "/>
<path style=" stroke:none;fill-rule:nonzero;fill:rgb(54.899597%,36.859131%,25.489807%);fill-opacity:1;" d="M 288.570312 189.289062 L 287.863281 188.324219 L 288.570312 189.289062 "/>
<path style=" stroke:none;fill-rule:nonzero;fill:rgb(47.44873%,46.669006%,47.059631%);fill-opacity:1;" d="M 288.570312 189.289062 L 287.863281 188.324219 L 286.855469 186.933594 L 301.875 175.933594 L 303.589844 178.285156 L 288.570312 189.289062 "/>
<path style=" stroke:none;fill-rule:nonzero;fill:rgb(97.648621%,66.668701%,47.059631%);fill-opacity:1;" d="M 231.363281 110.925781 L 246.386719 99.925781 L 226.917969 89.050781 Z M 231.363281 110.925781 "/>
<path style=" stroke:none;fill-rule:nonzero;fill:rgb(15.689087%,8.628845%,9.799194%);fill-opacity:1;" d="M 234.089844 93.058594 L 226.917969 89.050781 L 228.558594 97.105469 Z M 234.089844 93.058594 "/>
<path style=" stroke:none;fill-rule:nonzero;fill:rgb(98.039246%,69.799805%,8.239746%);fill-opacity:1;" d="M 235.476562 107.675781 L 242.046875 102.863281 L 295.132812 175.578125 L 288.5625 180.394531 L 235.476562 107.675781 "/>
<path style=" stroke:none;fill-rule:nonzero;fill:rgb(97.648621%,66.668701%,47.059631%);fill-opacity:1;" d="M 252.195312 111.066406 C 254.601562 111.980469 264.34375 113.625 267.855469 114.734375 C 267.933594 116.253906 267.785156 126.289062 267.949219 129.464844 C 275.507812 135.132812 288.265625 131.957031 291.910156 125.792969 C 291.910156 120.605469 294.050781 108.222656 288.011719 102.863281 C 281.976562 97.496094 250.929688 95.800781 247.589844 95.03125 C 244.246094 94.257812 239.464844 106.238281 252.195312 111.066406 "/>
</g>
</svg>
