<?xml version="1.0" encoding="UTF-8"?>
<svg xmlns="http://www.w3.org/2000/svg" xmlns:xlink="http://www.w3.org/1999/xlink" width="810pt" height="809.999993pt" viewBox="0 0 810 809.999993" version="1.2">
<defs>
<clipPath id="clip1">
  <path d="M 668 350 L 788.523438 350 L 788.523438 498 L 668 498 Z M 668 350 "/>
</clipPath>
<clipPath id="clip2">
  <path d="M 293 504 L 330 504 L 330 714.902344 L 293 714.902344 Z M 293 504 "/>
</clipPath>
<clipPath id="clip3">
  <path d="M 581 133.652344 L 599 133.652344 L 599 162 L 581 162 Z M 581 133.652344 "/>
</clipPath>
</defs>
<g id="surface1">
<path style=" stroke:none;fill-rule:nonzero;fill:rgb(11.759949%,10.978699%,13.729858%);fill-opacity:1;" d="M 420.1875 556.71875 C 420.1875 556.71875 441.023438 580.511719 419.269531 583.335938 C 405.5625 585.105469 401.085938 588.507812 401.085938 588.507812 C 401.085938 588.507812 386.484375 590.992188 382.859375 587.707031 C 379.246094 584.425781 408.722656 576.863281 410.675781 568.039062 L 420.1875 556.71875 "/>
<path style=" stroke:none;fill-rule:nonzero;fill:rgb(90.979004%,63.139343%,35.688782%);fill-opacity:1;" d="M 376.632812 373.191406 C 376.632812 373.191406 340.746094 477.101562 352.757812 499.679688 C 364.757812 522.25 408.050781 572.726562 408.050781 572.726562 L 422.421875 556.699219 C 422.421875 556.699219 392.941406 517.28125 386.765625 495.671875 C 380.597656 474.058594 423.746094 385.371094 423.746094 385.371094 L 376.632812 373.191406 "/>
<path style=" stroke:none;fill-rule:nonzero;fill:rgb(76.469421%,11.369324%,18.818665%);fill-opacity:1;" d="M 381.429688 241.617188 C 381.429688 241.617188 352.050781 298.765625 362.464844 317.0625 C 372.886719 335.371094 379.101562 336.195312 379.101562 336.195312 C 379.101562 336.195312 412.730469 256.859375 381.429688 241.617188 "/>
<path style=" stroke:none;fill-rule:nonzero;fill:rgb(11.759949%,10.978699%,13.729858%);fill-opacity:1;" d="M 439.390625 609.496094 C 439.390625 609.496094 446.695312 622.195312 430.398438 622.960938 C 414.097656 623.734375 408.144531 624.882812 408.144531 624.882812 C 408.144531 624.882812 390.65625 624.5 387.199219 619.882812 C 383.742188 615.269531 416.78125 612.558594 421.003906 602.757812 L 439.390625 609.496094 "/>
<path style=" stroke:none;fill-rule:nonzero;fill:rgb(91.758728%,74.119568%,40.388489%);fill-opacity:1;" d="M 421.511719 604.824219 C 421.511719 604.824219 407.125 502.316406 404.160156 435.519531 L 444.082031 441.375 C 444.082031 441.375 434.550781 593.628906 439.511719 610.421875 L 421.511719 604.824219 "/>
<path style=" stroke:none;fill-rule:nonzero;fill:rgb(91.758728%,74.119568%,40.388489%);fill-opacity:1;" d="M 444.054688 441.6875 L 445.789062 341.945312 L 406.777344 350.136719 C 406.777344 350.136719 387.34375 427.90625 413.988281 533.980469 L 444.054688 441.6875 "/>
<path style=" stroke:none;fill-rule:nonzero;fill:rgb(8.628845%,7.449341%,9.01947%);fill-opacity:1;" d="M 424.347656 371.695312 C 424.347656 371.695312 446.289062 359.671875 446.289062 338.535156 L 385.855469 328.582031 L 383.578125 332.519531 L 424.347656 371.695312 "/>
<path style=" stroke:none;fill-rule:nonzero;fill:rgb(89.7995%,18.03894%,22.349548%);fill-opacity:1;" d="M 383.578125 320.898438 C 383.578125 320.898438 383.484375 269.101562 378.433594 249.195312 C 378.433594 249.195312 380.113281 240.355469 389.789062 230.242188 C 389.789062 230.242188 406.191406 218.835938 420.382812 222.644531 C 434.574219 226.457031 400.398438 305.101562 383.578125 320.898438 "/>
<path style=" stroke:none;fill-rule:nonzero;fill:rgb(94.119263%,55.688477%,53.329468%);fill-opacity:1;" d="M 388.53125 241.617188 L 388.53125 210.972656 L 406.191406 203.707031 L 412.433594 224.847656 L 388.53125 241.617188 "/>
<path style=" stroke:none;fill-rule:nonzero;fill:rgb(89.7995%,18.03894%,22.349548%);fill-opacity:1;" d="M 456.691406 381.441406 C 456.691406 381.441406 373.117188 394.832031 373.117188 377.835938 C 373.117188 377.835938 391.691406 256.375 387.554688 240.621094 C 387.554688 240.621094 403.242188 227.007812 416.695312 222.867188 C 416.695312 222.867188 436.4375 218.308594 443.476562 250.640625 C 443.476562 250.640625 436.816406 320.90625 456.691406 381.441406 "/>
<path style=" stroke:none;fill-rule:nonzero;fill:rgb(90.19928%,21.958923%,29.019165%);fill-opacity:1;" d="M 414.9375 247.628906 C 414.9375 247.628906 419.492188 288.371094 424.347656 290.851562 C 429.214844 293.34375 443.273438 295.191406 443.273438 295.191406 C 443.273438 295.191406 448.9375 254.164062 443.273438 245.765625 C 437.597656 237.371094 414.625 221.207031 414.9375 247.628906 "/>
<path style=" stroke:none;fill-rule:nonzero;fill:rgb(95.289612%,67.449951%,56.469727%);fill-opacity:1;" d="M 404.695312 217.933594 C 404.6875 217.933594 400.59375 224.101562 393.644531 226.59375 C 390.050781 227.886719 385.6875 228.183594 380.742188 226.140625 C 380.445312 226.015625 380.164062 225.894531 379.894531 225.75 C 368.589844 220.289062 366.429688 203.171875 366.023438 197.414062 C 366.304688 194.179688 365.121094 190.804688 362.472656 188.863281 C 362.472656 181.003906 364.433594 167.15625 377.90625 165.800781 C 382.839844 165.316406 388.742188 165.511719 393.3125 167.546875 C 400.234375 170.609375 403.894531 176.664062 405.832031 183.445312 C 406.9375 187.375 407.464844 191.535156 407.691406 195.515625 C 408.117188 202.773438 408.925781 211.542969 404.695312 217.933594 "/>
<path style=" stroke:none;fill-rule:nonzero;fill:rgb(90.979004%,47.44873%,35.688782%);fill-opacity:1;" d="M 387.84375 227.613281 C 385.644531 227.613281 383.273438 227.1875 380.742188 226.140625 C 380.445312 226.015625 380.164062 225.894531 379.894531 225.75 C 379.894531 218.84375 383.359375 210.652344 383.359375 210.652344 C 383.359375 210.652344 390.492188 211.425781 391.257812 215.390625 C 391.699219 217.667969 392.796875 222.703125 393.644531 226.59375 C 392.082031 227.152344 390.367188 227.527344 388.53125 227.605469 C 388.300781 227.613281 388.074219 227.613281 387.84375 227.613281 "/>
<path style=" stroke:none;fill-rule:nonzero;fill:rgb(95.289612%,67.449951%,56.469727%);fill-opacity:1;" d="M 410.921875 368.027344 C 410.921875 368.0625 405.246094 368.324219 404.933594 368.375 C 400.320312 369.058594 395.894531 370.679688 392.15625 373.539062 C 390.953125 374.46875 389.832031 375.503906 388.777344 376.59375 C 387.828125 377.582031 386.246094 378.855469 385.667969 380.097656 C 384.320312 382.90625 386.210938 386.027344 388.371094 387.804688 C 389.390625 388.648438 390.578125 389.253906 391.613281 390.070312 C 392.746094 390.960938 393.839844 391.878906 395.121094 392.542969 L 396.667969 393.34375 C 396.667969 393.34375 404.355469 387.855469 407.558594 377.800781 L 410.921875 368.027344 "/>
<path style=" stroke:none;fill-rule:nonzero;fill:rgb(90.19928%,21.958923%,29.019165%);fill-opacity:1;" d="M 419.667969 278.1875 C 419.667969 278.1875 417.46875 331.304688 395.378906 367.089844 L 412.433594 373.191406 C 412.433594 373.191406 438.363281 340.046875 441.105469 315.308594 C 443.84375 290.574219 445.191406 276.519531 445.191406 276.519531 L 419.667969 278.1875 "/>
<path style=" stroke:none;fill-rule:nonzero;fill:rgb(94.898987%,31.369019%,21.179199%);fill-opacity:1;" d="M 407.753906 208.976562 C 407.753906 208.976562 399.277344 199.933594 403.753906 191.390625 C 408.210938 182.851562 391.15625 189.152344 393.1875 180.613281 C 395.214844 172.070312 379.179688 177.160156 374.710938 174.308594 C 370.246094 171.460938 368.289062 182.042969 362.464844 176.136719 C 356.636719 170.242188 353.46875 162.714844 368.757812 152.957031 C 384.046875 143.199219 390.136719 155.398438 399.070312 150.105469 C 408.007812 144.824219 412.269531 160.691406 413.496094 164.144531 C 414.707031 167.597656 421.597656 160.691406 420.289062 174.921875 C 418.972656 189.152344 426.890625 185.292969 426.890625 191.1875 C 426.890625 197.089844 420.882812 217.617188 407.753906 208.976562 "/>
<path style=" stroke:none;fill-rule:nonzero;fill:rgb(89.7995%,18.03894%,22.349548%);fill-opacity:1;" d="M 372.035156 331.023438 C 372.035156 331.023438 357.265625 321.339844 353.238281 302.210938 C 349.222656 283.078125 371.425781 227.613281 371.425781 227.613281 L 385.261719 233.472656 L 372.035156 331.023438 "/>
<path style=" stroke:none;fill-rule:nonzero;fill:rgb(95.689392%,74.119568%,58.039856%);fill-opacity:1;" d="M 373.117188 229.1875 C 373.8125 225.25 374.523438 221.410156 374.789062 217.429688 C 374.898438 215.660156 374.90625 211.542969 377.25 210.703125 C 380.046875 209.6875 387.097656 211.324219 387.097656 211.324219 C 387.097656 211.324219 391.894531 212.964844 391.222656 216.359375 C 390.554688 219.761719 384.054688 233.234375 384.054688 233.234375 L 373.117188 229.1875 "/>
<path style=" stroke:none;fill-rule:nonzero;fill:rgb(95.289612%,67.449951%,56.469727%);fill-opacity:1;" d="M 315.164062 412.527344 C 315.164062 412.527344 333.3125 406.742188 327.800781 404.097656 C 322.296875 401.449219 310.796875 405.746094 315.164062 412.527344 "/>
<path style=" stroke:none;fill-rule:nonzero;fill:rgb(93.728638%,47.059631%,36.468506%);fill-opacity:1;" d="M 329.949219 440.207031 L 339.898438 437.351562 L 313.097656 343.679688 L 303.152344 346.539062 L 329.949219 440.207031 "/>
<path style=" stroke:none;fill-rule:nonzero;fill:rgb(48.629761%,15.289307%,18.03894%);fill-opacity:1;" d="M 441.820312 469.753906 L 462.792969 650.132812 L 473.636719 650.132812 L 462.792969 463.679688 L 441.820312 469.753906 "/>
<path style=" stroke:none;fill-rule:nonzero;fill:rgb(48.629761%,15.289307%,18.03894%);fill-opacity:1;" d="M 216.058594 486.238281 L 195.078125 666.617188 L 184.242188 666.617188 L 195.078125 480.164062 L 216.058594 486.238281 "/>
<g clip-path="url(#clip1)" clip-rule="nonzero">
<path style=" stroke:none;fill-rule:nonzero;fill:rgb(79.60968%,24.308777%,31.369019%);fill-opacity:1;" d="M 763.773438 497.433594 C 763.773438 497.433594 778.996094 369.914062 788.007812 358.628906 C 788.007812 358.628906 702.457031 344.445312 670.871094 352.671875 C 670.871094 352.671875 666.402344 441.621094 670.871094 493.511719 L 763.773438 497.433594 "/>
</g>
<path style=" stroke:none;fill-rule:nonzero;fill:rgb(79.60968%,24.308777%,31.369019%);fill-opacity:1;" d="M 663.023438 529.335938 L 751.304688 529.335938 L 751.304688 546.511719 L 663.023438 546.511719 L 663.023438 529.335938 "/>
<path style=" stroke:none;fill-rule:nonzero;fill:rgb(79.998779%,43.919373%,33.729553%);fill-opacity:1;" d="M 672.78125 546.511719 L 581.542969 546.511719 L 581.542969 529.335938 L 672.78125 529.335938 L 672.78125 546.511719 "/>
<path style=" stroke:none;fill-rule:nonzero;fill:rgb(79.60968%,24.308777%,31.369019%);fill-opacity:1;" d="M 744.984375 529.335938 C 744.984375 529.335938 745.859375 500.292969 748.945312 495.621094 L 735.480469 495.621094 L 732.210938 529.335938 L 744.984375 529.335938 "/>
<path style=" stroke:none;fill-rule:nonzero;fill:rgb(79.998779%,43.919373%,33.729553%);fill-opacity:1;" d="M 741.214844 529.335938 C 741.214844 529.335938 742.089844 500.292969 745.171875 495.621094 L 731.703125 495.621094 L 728.441406 529.335938 L 741.214844 529.335938 "/>
<path style=" stroke:none;fill-rule:nonzero;fill:rgb(79.60968%,24.308777%,31.369019%);fill-opacity:1;" d="M 703.390625 529.335938 C 703.390625 529.335938 704.300781 499.40625 707.476562 494.601562 L 693.183594 494.089844 L 690.246094 529.335938 L 703.390625 529.335938 "/>
<path style=" stroke:none;fill-rule:nonzero;fill:rgb(79.998779%,43.919373%,33.729553%);fill-opacity:1;" d="M 699.503906 529.335938 C 699.503906 529.335938 700.410156 499.40625 703.578125 494.601562 L 689.292969 494.089844 L 686.355469 529.335938 L 699.503906 529.335938 "/>
<path style=" stroke:none;fill-rule:nonzero;fill:rgb(79.998779%,43.919373%,33.729553%);fill-opacity:1;" d="M 751.890625 497.433594 C 751.890625 497.433594 767.113281 369.914062 776.125 358.628906 C 776.125 358.628906 690.566406 344.445312 658.980469 352.671875 C 658.980469 352.671875 654.511719 441.621094 658.980469 493.511719 L 751.890625 497.433594 "/>
<path style=" stroke:none;fill-rule:nonzero;fill:rgb(59.21936%,14.118958%,21.958923%);fill-opacity:1;" d="M 690.246094 546.511719 L 682.753906 674.589844 L 672.1875 674.589844 L 675.710938 546.511719 L 690.246094 546.511719 "/>
<path style=" stroke:none;fill-rule:nonzero;fill:rgb(59.21936%,14.118958%,21.958923%);fill-opacity:1;" d="M 745.171875 546.511719 L 737.679688 674.589844 L 727.125 674.589844 L 730.648438 546.511719 L 745.171875 546.511719 "/>
<path style=" stroke:none;fill-rule:nonzero;fill:rgb(79.998779%,43.919373%,33.729553%);fill-opacity:1;" d="M 602.792969 546.511719 L 595.308594 674.589844 L 584.734375 674.589844 L 588.261719 546.511719 L 602.792969 546.511719 "/>
<path style=" stroke:none;fill-rule:nonzero;fill:rgb(79.998779%,34.118652%,32.548523%);fill-opacity:1;" d="M 672.78125 546.511719 L 665.296875 674.589844 L 654.742188 674.589844 L 658.265625 546.511719 L 672.78125 546.511719 "/>
<path style=" stroke:none;fill-rule:nonzero;fill:rgb(79.60968%,24.308777%,31.369019%);fill-opacity:1;" d="M 146.34375 559.738281 L 58.066406 559.738281 L 58.066406 576.90625 L 146.34375 576.90625 L 146.34375 559.738281 "/>
<path style=" stroke:none;fill-rule:nonzero;fill:rgb(94.119263%,55.688477%,53.329468%);fill-opacity:1;" d="M 133.804688 378.644531 L 117.691406 347.457031 L 95.90625 349.390625 L 100.664062 374.195312 L 133.804688 378.644531 "/>
<path style=" stroke:none;fill-rule:nonzero;fill:rgb(11.759949%,10.978699%,13.729858%);fill-opacity:1;" d="M 286.828125 687.347656 C 286.828125 687.347656 278.46875 701.894531 297.148438 702.78125 C 315.816406 703.664062 322.628906 704.984375 322.628906 704.984375 C 322.628906 704.984375 342.675781 704.542969 346.632812 699.25 C 350.597656 693.96875 312.734375 690.855469 307.902344 679.625 L 286.828125 687.347656 "/>
<path style=" stroke:none;fill-rule:nonzero;fill:rgb(11.759949%,10.978699%,13.729858%);fill-opacity:1;" d="M 217.65625 677.625 C 217.65625 677.625 209.289062 692.171875 227.964844 693.058594 C 246.644531 693.933594 253.464844 695.253906 253.464844 695.253906 C 253.464844 695.253906 273.5 694.820312 277.46875 689.527344 C 281.417969 684.234375 243.5625 681.121094 238.71875 669.894531 L 217.65625 677.625 "/>
<path style=" stroke:none;fill-rule:nonzero;fill:rgb(7.058716%,5.879211%,7.058716%);fill-opacity:1;" d="M 218.148438 681.699219 L 236.996094 671.417969 L 201.101562 556.90625 L 163.433594 563.234375 C 163.433594 563.234375 172.367188 611.152344 218.148438 681.699219 "/>
<path style=" stroke:none;fill-rule:nonzero;fill:rgb(79.998779%,43.919373%,33.729553%);fill-opacity:1;" d="M 136.574219 576.90625 L 227.832031 576.90625 L 227.832031 559.738281 L 136.574219 559.738281 L 136.574219 576.90625 "/>
<path style=" stroke:none;fill-rule:nonzero;fill:rgb(8.628845%,7.449341%,9.01947%);fill-opacity:1;" d="M 90.359375 529.5625 C 90.359375 529.5625 99.601562 511.53125 119.417969 504.867188 C 139.226562 498.199219 166.394531 497.738281 166.394531 497.738281 L 270.621094 530.703125 C 270.621094 530.703125 277.230469 550.449219 262.050781 556.402344 C 246.855469 562.359375 94.972656 566.882812 90.359375 529.5625 "/>
<path style=" stroke:none;fill-rule:nonzero;fill:rgb(8.628845%,7.449341%,9.01947%);fill-opacity:1;" d="M 245.523438 558.972656 L 270.621094 530.703125 L 307.613281 680.519531 L 287.796875 691.3125 C 287.796875 691.3125 227.6875 599.242188 245.523438 558.972656 "/>
<path style=" stroke:none;fill-rule:nonzero;fill:rgb(11.759949%,10.978699%,13.729858%);fill-opacity:1;" d="M 605.289062 680.519531 C 605.289062 680.519531 613.648438 695.066406 594.96875 695.949219 C 576.292969 696.835938 569.480469 698.152344 569.480469 698.152344 C 569.480469 698.152344 549.445312 697.710938 545.484375 692.417969 C 541.519531 687.128906 579.375 684.023438 584.226562 672.792969 L 605.289062 680.519531 "/>
<path style=" stroke:none;fill-rule:nonzero;fill:rgb(11.759949%,10.978699%,13.729858%);fill-opacity:1;" d="M 546.320312 648.5 C 546.320312 648.5 553.394531 660.816406 537.585938 661.566406 C 521.761719 662.3125 516.003906 663.429688 516.003906 663.429688 C 516.003906 663.429688 499.027344 663.054688 495.671875 658.578125 C 492.316406 654.097656 524.371094 651.46875 528.472656 641.957031 L 546.320312 648.5 "/>
<path style=" stroke:none;fill-rule:nonzero;fill:rgb(7.058716%,5.879211%,7.058716%);fill-opacity:1;" d="M 674.15625 485.082031 C 674.15625 485.082031 595.488281 460.410156 571.144531 490.449219 C 546.820312 520.496094 526.96875 644.542969 526.96875 644.542969 L 546.207031 651.347656 C 546.207031 651.347656 572.285156 529.003906 595.488281 510.296875 C 618.691406 491.589844 660.152344 525.03125 660.152344 525.03125 C 660.152344 525.03125 678.683594 506.347656 674.15625 485.082031 "/>
<path style=" stroke:none;fill-rule:nonzero;fill:rgb(8.628845%,7.449341%,9.01947%);fill-opacity:1;" d="M 584.660156 674.105469 C 584.660156 674.105469 550.691406 528.851562 579.859375 505.335938 L 606.183594 522.445312 C 606.183594 522.445312 599.597656 661.277344 605.289062 680.519531 L 584.660156 674.105469 "/>
<path style=" stroke:none;fill-rule:nonzero;fill:rgb(8.628845%,7.449341%,9.01947%);fill-opacity:1;" d="M 604.050781 540.019531 L 698.433594 529.5625 L 651.707031 484.671875 C 651.707031 484.671875 578.398438 489.667969 572.378906 516.03125 L 604.050781 540.019531 "/>
<path style=" stroke:none;fill-rule:nonzero;fill:rgb(8.628845%,7.449341%,9.01947%);fill-opacity:1;" d="M 698.433594 529.5625 C 698.433594 529.5625 723.574219 515.792969 723.574219 491.5625 L 654.324219 480.164062 L 651.707031 484.671875 L 698.433594 529.5625 "/>
<path style=" stroke:none;fill-rule:nonzero;fill:rgb(17.248535%,26.269531%,43.139648%);fill-opacity:1;" d="M 638.949219 406.359375 C 638.949219 406.359375 643.800781 370.953125 660.769531 368.9375 C 677.75 366.921875 660.769531 421.757812 660.769531 421.757812 L 638.949219 406.359375 "/>
<path style=" stroke:none;fill-rule:nonzero;fill:rgb(17.248535%,26.269531%,43.139648%);fill-opacity:1;" d="M 575.714844 429.8125 C 575.714844 429.8125 629.855469 411.113281 638.949219 406.359375 C 638.949219 406.359375 653.320312 405.339844 660.769531 418.089844 C 668.230469 430.832031 597.398438 436.976562 597.398438 436.976562 L 575.714844 429.8125 "/>
<path style=" stroke:none;fill-rule:nonzero;fill:rgb(19.219971%,29.019165%,47.839355%);fill-opacity:1;" d="M 651.707031 471.367188 C 651.707031 471.367188 651.597656 412.007812 645.8125 389.199219 C 645.8125 389.199219 647.742188 379.070312 658.824219 367.492188 C 658.824219 367.492188 677.613281 354.417969 693.886719 358.78125 C 710.144531 363.144531 670.980469 453.265625 651.707031 471.367188 "/>
<path style=" stroke:none;fill-rule:nonzero;fill:rgb(94.119263%,55.688477%,53.329468%);fill-opacity:1;" d="M 657.382812 380.523438 L 657.382812 345.417969 L 677.613281 337.089844 L 684.765625 361.316406 L 657.382812 380.523438 "/>
<path style=" stroke:none;fill-rule:nonzero;fill:rgb(19.60907%,29.798889%,49.01886%);fill-opacity:1;" d="M 730.207031 497.738281 C 730.207031 497.738281 649.109375 494.890625 649.109375 475.410156 C 649.109375 475.410156 661 397.425781 656.269531 379.375 C 656.269531 379.375 674.242188 363.78125 689.65625 359.035156 C 689.65625 359.035156 712.285156 353.8125 720.347656 390.859375 C 720.347656 390.859375 707.445312 428.382812 730.207031 497.738281 "/>
<path style=" stroke:none;fill-rule:nonzero;fill:rgb(21.569824%,32.939148%,54.119873%);fill-opacity:1;" d="M 687.644531 387.414062 C 687.644531 387.414062 692.859375 434.089844 698.433594 436.933594 C 704.011719 439.792969 720.109375 441.910156 720.109375 441.910156 C 720.109375 441.910156 726.597656 394.902344 720.109375 385.28125 C 713.609375 375.65625 687.28125 357.128906 687.644531 387.414062 "/>
<path style=" stroke:none;fill-rule:nonzero;fill:rgb(95.289612%,67.449951%,56.469727%);fill-opacity:1;" d="M 576.8125 429.890625 C 576.8125 429.890625 567.851562 429.082031 559.535156 426.382812 C 554.726562 424.394531 561.980469 419.253906 561.980469 419.253906 C 561.980469 419.253906 579.929688 417.84375 586.503906 429.890625 C 586.503906 429.890625 578.367188 431.003906 576.8125 429.890625 "/>
<path style=" stroke:none;fill-rule:nonzero;fill:rgb(95.289612%,67.449951%,56.469727%);fill-opacity:1;" d="M 677.199219 313.871094 C 675.007812 306.097656 670.792969 299.164062 662.867188 295.652344 C 657.621094 293.320312 650.859375 293.089844 645.21875 293.652344 C 623.535156 295.828125 627.867188 326.234375 627.867188 326.234375 L 631.484375 327.679688 C 631.484375 327.679688 631.851562 355.90625 648.472656 362.789062 C 665.09375 369.660156 675.890625 353.378906 675.90625 353.371094 C 680.75 346.070312 679.839844 336.015625 679.339844 327.6875 C 679.074219 323.136719 678.472656 318.363281 677.199219 313.871094 "/>
<path style=" stroke:none;fill-rule:nonzero;fill:rgb(16.859436%,10.198975%,14.898682%);fill-opacity:1;" d="M 680.960938 348.402344 C 680.960938 348.402344 684.792969 348.035156 684.765625 337.089844 C 684.757812 326.140625 693.972656 339.171875 692.070312 324.777344 C 690.175781 310.394531 695.128906 303.605469 687.636719 298.996094 C 680.144531 294.375 689.097656 285.960938 674.871094 284.882812 C 660.636719 283.792969 653.636719 285.960938 653.636719 285.960938 C 653.636719 285.960938 636.964844 289.765625 645.8125 299.539062 C 654.671875 309.304688 658.460938 298.449219 663.082031 306.320312 C 667.683594 314.195312 662.726562 318.808594 667.777344 321.519531 C 672.832031 324.234375 682.328125 331.292969 674.871094 335.914062 C 667.414062 340.523438 680.960938 348.402344 680.960938 348.402344 "/>
<path style=" stroke:none;fill-rule:nonzero;fill:rgb(16.859436%,10.198975%,14.898682%);fill-opacity:1;" d="M 654.9375 300.617188 C 654.9375 300.617188 625.125 316.101562 615.101562 312.300781 C 605.078125 308.496094 598.273438 295.734375 608.859375 294.917969 C 619.433594 294.109375 610.769531 286.234375 622.414062 288.402344 C 634.074219 290.582031 631.910156 279.445312 638.949219 282.160156 C 646 284.882812 655.488281 274.5625 660.769531 278.636719 C 666.0625 282.703125 669.222656 294.109375 654.9375 300.617188 "/>
<path style=" stroke:none;fill-rule:nonzero;fill:rgb(93.328857%,15.289307%,33.329773%);fill-opacity:1;" d="M 79.554688 524.296875 C 79.554688 524.296875 133.8125 553.980469 177.523438 485.550781 C 177.523438 485.550781 157.929688 450.757812 159.941406 434.441406 C 161.945312 418.125 162.957031 382.394531 162.957031 382.394531 C 162.957031 382.394531 81.96875 362.726562 67.910156 386.878906 C 67.910156 386.878906 74.953125 448.605469 83.753906 470.644531 C 92.550781 492.695312 79.554688 524.296875 79.554688 524.296875 "/>
<path style=" stroke:none;fill-rule:nonzero;fill:rgb(93.328857%,15.289307%,33.329773%);fill-opacity:1;" d="M 127.113281 408.851562 C 127.113281 408.851562 186.101562 440.003906 223.746094 443.3125 L 226.386719 414.628906 C 226.386719 414.628906 161.859375 372.492188 123.46875 372.519531 C 85.078125 372.542969 123.46875 406.359375 123.46875 406.359375 "/>
<path style=" stroke:none;fill-rule:nonzero;fill:rgb(93.328857%,15.289307%,33.329773%);fill-opacity:1;" d="M 223.746094 443.3125 L 320.15625 429.8125 L 312.292969 412.425781 L 222.921875 412.425781 L 223.746094 443.3125 "/>
<path style=" stroke:none;fill-rule:nonzero;fill:rgb(95.289612%,67.449951%,56.469727%);fill-opacity:1;" d="M 319.273438 427.875 C 319.273438 427.875 321.472656 431.847656 334.230469 426.554688 C 346.996094 421.261719 337.765625 407.917969 337.765625 407.917969 C 337.765625 407.917969 341.195312 397.199219 312.292969 412.425781 L 319.273438 427.875 "/>
<path style=" stroke:none;fill-rule:nonzero;fill:rgb(16.859436%,10.198975%,14.898682%);fill-opacity:1;" d="M 138.484375 305.085938 C 144.507812 297.8125 138.570312 292.742188 130.859375 291.421875 C 129.371094 291.160156 128.226562 290.734375 127.238281 290.214844 C 124.75 284.925781 120.273438 280.382812 117.105469 278.960938 C 111.152344 276.316406 99.933594 282.269531 92.671875 286.566406 C 85.410156 290.871094 87.71875 296.816406 87.71875 296.816406 C 65.269531 316 76.90625 327.390625 76.90625 327.390625 C 78.433594 336.1875 85.347656 346.0625 78.027344 352.265625 C 69.449219 359.539062 90.070312 362.40625 84.824219 367.695312 C 79.574219 372.988281 114.355469 377.835938 118.09375 361.519531 C 118.09375 361.519531 146.046875 351.609375 142.300781 337.9375 C 138.570312 324.269531 144.949219 329.117188 146.273438 319.417969 C 147.582031 309.722656 132.472656 312.359375 138.484375 305.085938 "/>
<path style=" stroke:none;fill-rule:nonzero;fill:rgb(79.998779%,43.919373%,33.729553%);fill-opacity:1;" d="M 68.15625 559.738281 C 68.15625 559.738281 67.273438 530.6875 64.199219 526.015625 L 77.664062 526.015625 L 80.925781 559.738281 L 68.15625 559.738281 "/>
<path style=" stroke:none;fill-rule:nonzero;fill:rgb(79.60968%,24.308777%,31.369019%);fill-opacity:1;" d="M 64.386719 559.738281 C 64.386719 559.738281 63.503906 530.6875 60.429688 526.015625 L 73.890625 526.015625 L 77.152344 559.738281 L 64.386719 559.738281 "/>
<path style=" stroke:none;fill-rule:nonzero;fill:rgb(79.998779%,43.919373%,33.729553%);fill-opacity:1;" d="M 109.871094 559.738281 C 109.871094 559.738281 108.953125 529.8125 105.785156 524.996094 L 120.078125 524.492188 L 123.019531 559.738281 L 109.871094 559.738281 "/>
<path style=" stroke:none;fill-rule:nonzero;fill:rgb(79.60968%,24.308777%,31.369019%);fill-opacity:1;" d="M 105.972656 559.738281 C 105.972656 559.738281 105.0625 529.8125 101.894531 524.996094 L 116.179688 524.492188 L 119.128906 559.738281 L 105.972656 559.738281 "/>
<path style=" stroke:none;fill-rule:nonzero;fill:rgb(79.998779%,43.919373%,33.729553%);fill-opacity:1;" d="M 57.472656 527.835938 C 57.472656 527.835938 42.261719 400.320312 33.25 389.03125 C 33.25 389.03125 118.796875 374.851562 150.394531 383.066406 C 150.394531 383.066406 154.863281 472.023438 150.394531 523.914062 L 57.472656 527.835938 "/>
<path style=" stroke:none;fill-rule:nonzero;fill:rgb(79.60968%,24.308777%,31.369019%);fill-opacity:1;" d="M 45.589844 527.835938 C 45.589844 527.835938 30.378906 400.320312 21.359375 389.03125 C 21.359375 389.03125 106.90625 374.851562 138.503906 383.066406 C 138.503906 383.066406 142.960938 472.023438 138.503906 523.914062 L 45.589844 527.835938 "/>
<path style=" stroke:none;fill-rule:nonzero;fill:rgb(79.998779%,43.919373%,33.729553%);fill-opacity:1;" d="M 206.570312 576.90625 L 214.0625 704.984375 L 224.621094 704.984375 L 221.105469 576.90625 L 206.570312 576.90625 "/>
<path style=" stroke:none;fill-rule:nonzero;fill:rgb(48.629761%,15.289307%,18.03894%);fill-opacity:1;" d="M 136.574219 576.90625 L 144.066406 704.984375 L 154.632812 704.984375 L 151.105469 576.90625 L 136.574219 576.90625 "/>
<path style=" stroke:none;fill-rule:nonzero;fill:rgb(79.60968%,24.308777%,31.369019%);fill-opacity:1;" d="M 119.128906 576.90625 L 126.621094 704.984375 L 137.175781 704.984375 L 133.652344 576.90625 L 119.128906 576.90625 "/>
<path style=" stroke:none;fill-rule:nonzero;fill:rgb(79.60968%,24.308777%,31.369019%);fill-opacity:1;" d="M 64.199219 576.90625 L 71.683594 704.984375 L 82.242188 704.984375 L 78.722656 576.90625 L 64.199219 576.90625 "/>
<g clip-path="url(#clip2)" clip-rule="nonzero">
<path style=" stroke:none;fill-rule:nonzero;fill:rgb(79.219055%,19.60907%,30.979919%);fill-opacity:1;" d="M 329.433594 511.71875 L 305.769531 715.125 L 293.546875 715.125 L 305.769531 504.867188 L 329.433594 511.71875 "/>
</g>
<path style=" stroke:none;fill-rule:nonzero;fill:rgb(79.219055%,19.60907%,30.979919%);fill-opacity:1;" d="M 562.863281 495.230469 L 586.527344 698.648438 L 598.757812 698.648438 L 586.527344 488.382812 L 562.863281 495.230469 "/>
<path style=" stroke:none;fill-rule:nonzero;fill:rgb(79.60968%,24.308777%,31.369019%);fill-opacity:1;" d="M 633.804688 468.1875 L 633.804688 480.886719 C 633.804688 480.886719 587.488281 500.886719 521.457031 497.160156 C 493.71875 496.957031 451.453125 509.378906 409.859375 512.8125 C 368.257812 516.25 227.152344 512.183594 177.523438 480.886719 L 177.523438 458.71875 L 633.804688 468.1875 "/>
<path style=" stroke:none;fill-rule:nonzero;fill:rgb(79.998779%,43.919373%,33.729553%);fill-opacity:1;" d="M 553.292969 484.800781 C 552.882812 484.835938 552.46875 484.871094 552.070312 484.902344 C 527.945312 486.800781 504.0625 489.386719 480.015625 491.488281 C 430.777344 495.808594 379.417969 497.65625 329.585938 495.75 C 302.769531 494.730469 275.589844 492.320312 249.753906 488.296875 C 228.085938 484.921875 142.980469 461.109375 193.066406 449.8125 C 237.453125 439.800781 294.226562 439.945312 341.492188 438.746094 C 376.367188 437.859375 411.277344 437.65625 446.167969 437.316406 C 493.996094 436.847656 548.1875 440.546875 592.4375 450.484375 C 609.085938 454.226562 656.074219 467.320312 621.277344 476.054688 C 599.992188 481.40625 576.351562 482.996094 553.292969 484.800781 "/>
<path style=" stroke:none;fill-rule:nonzero;fill:rgb(43.919373%,71.759033%,90.979004%);fill-opacity:1;" d="M 338.027344 337.234375 C 335.480469 321.527344 321.59375 310.726562 298.386719 314.484375 C 275.191406 318.253906 258.441406 334.035156 260.988281 349.746094 C 263.53125 365.449219 284.390625 375.121094 307.585938 371.355469 L 308.027344 371.277344 L 308.027344 371.328125 L 308.003906 371.941406 C 307.960938 372.773438 307.800781 373.625 307.570312 374.507812 C 307.304688 375.378906 306.964844 376.277344 306.507812 377.128906 C 306.066406 377.996094 305.539062 378.839844 304.945312 379.628906 C 303.757812 381.222656 302.335938 382.589844 301.03125 383.679688 C 299.703125 384.777344 298.480469 385.578125 297.597656 386.121094 C 296.707031 386.65625 296.164062 386.921875 296.164062 386.921875 C 296.164062 386.921875 296.765625 386.964844 297.835938 386.964844 C 298.878906 386.945312 300.417969 386.878906 302.285156 386.582031 C 303.210938 386.4375 304.214844 386.222656 305.300781 385.953125 C 306.363281 385.652344 307.5 385.3125 308.664062 384.820312 C 309.835938 384.359375 311.027344 383.765625 312.214844 383.042969 C 313.421875 382.335938 314.585938 381.460938 315.714844 380.472656 C 316.8125 379.476562 317.882812 378.355469 318.808594 377.121094 C 319.027344 376.804688 319.257812 376.5 319.484375 376.195312 C 319.707031 375.871094 319.894531 375.546875 320.097656 375.214844 C 320.300781 374.890625 320.515625 374.570312 320.699219 374.238281 C 320.871094 373.898438 321.039062 373.566406 321.21875 373.234375 C 321.574219 372.570312 321.855469 371.890625 322.128906 371.21875 C 322.425781 370.546875 322.636719 369.882812 322.851562 369.226562 C 322.953125 368.894531 323.0625 368.5625 323.164062 368.238281 C 323.257812 367.925781 323.324219 367.609375 323.410156 367.296875 C 323.511719 366.851562 323.613281 366.410156 323.707031 365.976562 C 335.234375 359.445312 339.863281 348.613281 338.027344 337.234375 "/>
<path style=" stroke:none;fill-rule:nonzero;fill:rgb(92.549133%,32.939148%,34.509277%);fill-opacity:1;" d="M 584.683594 450.195312 L 594.640625 447.34375 L 567.839844 353.675781 L 557.886719 356.527344 L 584.683594 450.195312 "/>
<path style=" stroke:none;fill-rule:nonzero;fill:rgb(43.919373%,71.759033%,90.979004%);fill-opacity:1;" d="M 592.761719 347.226562 C 590.222656 331.523438 576.328125 320.710938 553.128906 324.480469 C 529.925781 328.242188 513.175781 344.03125 515.722656 359.734375 C 518.265625 375.4375 539.132812 385.117188 562.335938 381.347656 L 562.769531 381.273438 L 562.769531 381.324219 L 562.738281 381.925781 C 562.703125 382.761719 562.53125 383.613281 562.3125 384.503906 C 562.050781 385.363281 561.710938 386.265625 561.25 387.125 C 560.808594 387.984375 560.273438 388.828125 559.679688 389.617188 C 558.5 391.207031 557.082031 392.578125 555.753906 393.667969 C 554.445312 394.765625 553.214844 395.574219 552.339844 396.109375 C 551.449219 396.644531 550.90625 396.910156 550.90625 396.910156 C 550.90625 396.910156 551.5 396.960938 552.5625 396.949219 C 553.632812 396.933594 555.160156 396.867188 557.019531 396.566406 C 557.953125 396.421875 558.964844 396.210938 560.035156 395.9375 C 561.105469 395.640625 562.246094 395.300781 563.40625 394.808594 C 564.578125 394.347656 565.777344 393.753906 566.957031 393.039062 C 568.164062 392.324219 569.320312 391.445312 570.457031 390.46875 C 571.554688 389.464844 572.625 388.34375 573.539062 387.109375 C 573.769531 386.792969 574 386.488281 574.21875 386.179688 C 574.441406 385.859375 574.636719 385.535156 574.839844 385.210938 C 575.035156 384.886719 575.257812 384.554688 575.433594 384.222656 C 575.613281 383.894531 575.773438 383.550781 575.953125 383.21875 C 576.308594 382.558594 576.589844 381.875 576.863281 381.203125 C 577.160156 380.53125 577.378906 379.867188 577.59375 379.214844 C 577.703125 378.882812 577.804688 378.558594 577.898438 378.234375 C 577.992188 377.914062 578.066406 377.597656 578.144531 377.292969 C 578.253906 376.839844 578.355469 376.398438 578.457031 375.964844 C 589.96875 369.429688 594.605469 358.609375 592.761719 347.226562 "/>
<path style=" stroke:none;fill-rule:nonzero;fill:rgb(95.289612%,67.449951%,56.469727%);fill-opacity:1;" d="M 609.546875 427.347656 C 609.519531 427.386719 603.363281 425.304688 603.003906 425.226562 C 597.789062 424.035156 592.398438 423.925781 587.234375 425.421875 C 585.550781 425.917969 583.929688 426.554688 582.347656 427.285156 C 580.921875 427.941406 578.714844 428.648438 577.566406 429.726562 C 574.976562 432.160156 575.691406 436.285156 577.261719 439.085938 C 578.007812 440.402344 579.027344 441.542969 579.792969 442.855469 C 580.625 444.273438 581.414062 445.710938 582.511719 446.953125 L 583.828125 448.453125 C 583.828125 448.453125 594.316406 445.789062 601.910156 436.378906 L 609.546875 427.347656 "/>
<path style=" stroke:none;fill-rule:nonzero;fill:rgb(21.569824%,32.939148%,54.119873%);fill-opacity:1;" d="M 720.347656 440.097656 C 720.347656 440.097656 657.753906 454.746094 601.203125 437.289062 L 611.167969 425.535156 C 611.167969 425.535156 698.917969 432.558594 710.765625 413.777344 L 720.347656 440.097656 "/>
<path style=" stroke:none;fill-rule:nonzero;fill:rgb(97.648621%,67.83905%,16.079712%);fill-opacity:1;" d="M 104.28125 249.152344 C 104.179688 249.363281 104.09375 249.585938 104.035156 249.824219 L 102.980469 253.773438 C 102.421875 255.914062 103.703125 258.128906 105.835938 258.695312 L 106.703125 258.917969 L 106.109375 261.171875 L 109.496094 262.066406 L 108.816406 264.644531 L 115.324219 266.371094 L 116.003906 263.800781 L 119.375 264.695312 L 119.96875 262.449219 L 120.835938 262.679688 C 122.976562 263.25 125.183594 261.964844 125.753906 259.820312 L 126.796875 255.871094 C 126.867188 255.644531 126.890625 255.40625 126.917969 255.167969 L 128.351562 255.550781 L 129.082031 252.800781 L 130.078125 253.066406 L 131.4375 247.925781 L 130.433594 247.664062 L 131.460938 243.828125 L 130.1875 243.488281 C 133.09375 239.320312 136.71875 235.6875 140.226562 231.933594 C 145.078125 226.769531 149.636719 221.386719 151.582031 214.0625 C 155.132812 200.65625 147.351562 186.925781 134.152344 183.027344 L 134.152344 183.011719 L 133.925781 182.960938 L 133.703125 182.894531 L 133.695312 182.910156 C 120.308594 179.746094 106.753906 187.800781 103.203125 201.207031 C 101.257812 208.53125 102.566406 215.480469 104.207031 222.371094 C 105.410156 227.367188 106.777344 232.324219 107.21875 237.386719 L 105.953125 237.046875 L 104.925781 240.890625 L 103.933594 240.621094 L 102.566406 245.765625 L 103.566406 246.03125 L 102.847656 248.769531 "/>
<path style=" stroke:none;fill-rule:nonzero;fill:rgb(97.648621%,67.83905%,16.079712%);fill-opacity:1;" d="M 149 286.683594 L 155.871094 283.460938 L 140.089844 258.605469 Z M 149 286.683594 "/>
<path style=" stroke:none;fill-rule:nonzero;fill:rgb(97.648621%,67.83905%,16.079712%);fill-opacity:1;" d="M 169.488281 257.15625 L 174.046875 251.074219 L 148.464844 236.535156 Z M 169.488281 257.15625 "/>
<path style=" stroke:none;fill-rule:nonzero;fill:rgb(97.648621%,67.83905%,16.079712%);fill-opacity:1;" d="M 64.148438 260.746094 L 87.921875 243.394531 L 60.511719 254.078125 Z M 64.148438 260.746094 "/>
<path style=" stroke:none;fill-rule:nonzero;fill:rgb(97.648621%,67.83905%,16.079712%);fill-opacity:1;" d="M 63.84375 229.925781 L 92.5 223.25 L 63.097656 222.363281 Z M 63.84375 229.925781 "/>
<path style=" stroke:none;fill-rule:nonzero;fill:rgb(97.648621%,67.83905%,16.079712%);fill-opacity:1;" d="M 184.851562 172.175781 L 159.769531 187.578125 L 187.953125 179.125 Z M 184.851562 172.175781 "/>
<path style=" stroke:none;fill-rule:nonzero;fill:rgb(97.648621%,67.83905%,16.079712%);fill-opacity:1;" d="M 159.769531 213.132812 L 198.984375 222.363281 L 200.03125 212.003906 Z M 159.769531 213.132812 "/>
<path style=" stroke:none;fill-rule:nonzero;fill:rgb(97.648621%,67.83905%,16.079712%);fill-opacity:1;" d="M 56.265625 192.292969 L 96.222656 197.429688 L 58.917969 182.21875 Z M 56.265625 192.292969 "/>
<path style=" stroke:none;fill-rule:nonzero;fill:rgb(97.648621%,67.83905%,16.079712%);fill-opacity:1;" d="M 94.097656 150.269531 L 87.589844 154.191406 L 105.871094 177.277344 Z M 94.097656 150.269531 "/>
<path style=" stroke:none;fill-rule:nonzero;fill:rgb(97.648621%,67.83905%,16.079712%);fill-opacity:1;" d="M 149.1875 140.996094 L 138.714844 168.53125 L 155.871094 144.601562 Z M 149.1875 140.996094 "/>
<path style=" stroke:none;fill-rule:nonzero;fill:rgb(98.81897%,83.529663%,47.839355%);fill-opacity:1;" d="M 633.429688 241.792969 C 633.53125 242.007812 633.617188 242.226562 633.675781 242.457031 L 634.722656 246.414062 C 635.28125 248.546875 634 250.761719 631.867188 251.332031 L 631 251.558594 L 631.59375 253.804688 L 628.214844 254.707031 L 628.902344 257.277344 L 622.398438 259.011719 L 621.707031 256.433594 L 618.328125 257.335938 L 617.734375 255.082031 L 616.867188 255.3125 C 614.726562 255.882812 612.519531 254.597656 611.957031 252.460938 L 610.90625 248.515625 C 610.84375 248.277344 610.8125 248.046875 610.792969 247.808594 L 609.359375 248.183594 L 608.628906 245.445312 L 607.632812 245.707031 L 606.277344 240.570312 L 607.269531 240.296875 L 606.25 236.460938 L 607.507812 236.128906 C 604.621094 231.960938 600.992188 228.320312 597.476562 224.578125 C 592.625 219.414062 588.066406 214.027344 586.128906 206.703125 C 582.570312 193.289062 590.359375 179.558594 603.558594 175.660156 L 603.558594 175.644531 L 603.777344 175.59375 L 604.007812 175.527344 L 604.007812 175.542969 C 617.394531 172.378906 630.949219 180.441406 634.507812 193.839844 C 636.445312 201.175781 635.144531 208.125 633.496094 215.007812 C 632.300781 220.007812 630.925781 224.96875 630.484375 230.019531 L 631.757812 229.6875 L 632.765625 233.527344 L 633.769531 233.261719 L 635.136719 238.398438 L 634.136719 238.664062 L 634.867188 241.410156 "/>
<path style=" stroke:none;fill-rule:nonzero;fill:rgb(98.81897%,83.529663%,47.839355%);fill-opacity:1;" d="M 588.703125 279.316406 L 581.820312 276.101562 L 597.613281 251.238281 Z M 588.703125 279.316406 "/>
<path style=" stroke:none;fill-rule:nonzero;fill:rgb(98.81897%,83.529663%,47.839355%);fill-opacity:1;" d="M 568.222656 249.789062 L 563.652344 243.714844 L 589.246094 229.179688 Z M 568.222656 249.789062 "/>
<path style=" stroke:none;fill-rule:nonzero;fill:rgb(98.81897%,83.529663%,47.839355%);fill-opacity:1;" d="M 673.5625 253.378906 L 649.78125 236.035156 L 677.199219 246.710938 Z M 673.5625 253.378906 "/>
<path style=" stroke:none;fill-rule:nonzero;fill:rgb(98.81897%,83.529663%,47.839355%);fill-opacity:1;" d="M 673.859375 222.570312 L 645.210938 215.882812 L 674.605469 214.996094 Z M 673.859375 222.570312 "/>
<path style=" stroke:none;fill-rule:nonzero;fill:rgb(98.81897%,83.529663%,47.839355%);fill-opacity:1;" d="M 552.851562 164.816406 L 577.933594 180.222656 L 549.75 171.757812 Z M 552.851562 164.816406 "/>
<path style=" stroke:none;fill-rule:nonzero;fill:rgb(98.81897%,83.529663%,47.839355%);fill-opacity:1;" d="M 577.933594 205.777344 L 538.714844 214.996094 L 537.671875 204.636719 Z M 577.933594 205.777344 "/>
<path style=" stroke:none;fill-rule:nonzero;fill:rgb(98.81897%,83.529663%,47.839355%);fill-opacity:1;" d="M 681.4375 184.925781 L 641.480469 190.074219 L 678.785156 174.855469 Z M 681.4375 184.925781 "/>
<path style=" stroke:none;fill-rule:nonzero;fill:rgb(98.81897%,83.529663%,47.839355%);fill-opacity:1;" d="M 643.605469 142.910156 L 650.121094 146.824219 L 631.824219 169.910156 Z M 643.605469 142.910156 "/>
<g clip-path="url(#clip3)" clip-rule="nonzero">
<path style=" stroke:none;fill-rule:nonzero;fill:rgb(98.81897%,83.529663%,47.839355%);fill-opacity:1;" d="M 588.515625 133.636719 L 598.988281 161.175781 L 581.820312 137.234375 Z M 588.515625 133.636719 "/>
</g>
</g>
</svg>
