<?xml version="1.0" encoding="UTF-8"?>
<svg xmlns="http://www.w3.org/2000/svg" xmlns:xlink="http://www.w3.org/1999/xlink" width="375pt" height="374.999991pt" viewBox="0 0 375 374.999991" version="1.2">
<defs>
<clipPath id="clip1">
  <path d="M 88 228 L 282 228 L 282 366.824219 L 88 366.824219 Z M 88 228 "/>
</clipPath>
<clipPath id="clip2">
  <path d="M 46.621094 8.324219 L 328.621094 8.324219 L 328.621094 96 L 46.621094 96 Z M 46.621094 8.324219 "/>
</clipPath>
</defs>
<g id="surface1">
<path style=" stroke:none;fill-rule:nonzero;fill:rgb(15.689087%,8.628845%,9.799194%);fill-opacity:1;" d="M 114.761719 142.089844 C 114.761719 142.089844 120.363281 225.074219 108.257812 242.179688 C 117.976562 254.738281 182 228.03125 182 228.03125 C 182 228.03125 255.648438 267.296875 270.117188 243.917969 C 247.273438 223.339844 256.640625 158.394531 256.640625 158.394531 "/>
<g clip-path="url(#clip1)" clip-rule="nonzero">
<path style=" stroke:none;fill-rule:nonzero;fill:rgb(6.669617%,16.859436%,29.798889%);fill-opacity:1;" d="M 272.183594 366.925781 C 275.273438 344.59375 281.59375 296.71875 281.257812 281.621094 C 280.820312 261.6875 275.910156 248.824219 258.921875 241.734375 C 241.9375 234.632812 224.605469 228.03125 224.605469 228.03125 L 153.507812 228.03125 C 153.507812 228.03125 121.339844 239.578125 107.675781 246.867188 C 94.015625 254.160156 88.695312 265.234375 88.695312 285.160156 C 88.695312 300.136719 94.757812 345.359375 97.769531 366.925781 L 272.183594 366.925781 "/>
</g>
<path style=" stroke:none;fill-rule:nonzero;fill:rgb(93.328857%,94.119263%,83.139038%);fill-opacity:1;" d="M 235.484375 235.015625 C 235.484375 257.910156 189.058594 308.515625 189.058594 308.515625 C 189.058594 308.515625 142.628906 257.910156 142.628906 235.015625 C 166.722656 223.5 206.984375 220.277344 235.484375 235.015625 "/>
<path style=" stroke:none;fill-rule:nonzero;fill:rgb(90.979004%,60.778809%,43.139648%);fill-opacity:1;" d="M 216.761719 187.730469 L 161.351562 187.730469 L 152.042969 235.5625 C 152.042969 235.5625 160.683594 252.832031 189.058594 252.832031 C 217.429688 252.832031 226.070312 235.5625 226.070312 235.5625 L 216.761719 187.730469 "/>
<path style=" stroke:none;fill-rule:nonzero;fill:rgb(94.509888%,69.40918%,50.588989%);fill-opacity:1;" d="M 135.421875 136.660156 C 135.421875 136.660156 121.832031 127.257812 120.085938 134.222656 C 118.34375 141.195312 119.734375 162.085938 124.273438 165.222656 C 128.796875 168.351562 135.421875 169.394531 135.421875 169.394531 "/>
<path style=" stroke:none;fill-rule:nonzero;fill:rgb(94.509888%,69.40918%,50.588989%);fill-opacity:1;" d="M 242.246094 136.660156 C 242.246094 136.660156 255.832031 127.257812 257.582031 134.222656 C 259.320312 141.195312 257.925781 162.085938 253.394531 165.222656 C 248.867188 168.351562 242.246094 169.394531 242.246094 169.394531 "/>
<path style=" stroke:none;fill-rule:nonzero;fill:rgb(94.509888%,69.40918%,50.588989%);fill-opacity:1;" d="M 241.707031 186.683594 C 235.597656 202.570312 210.925781 215.972656 204.1875 220.574219 C 197.441406 225.164062 182.535156 226.253906 174.914062 220.984375 C 167.292969 215.71875 144.960938 205.359375 137.179688 186.683594 C 129.285156 167.699219 136.21875 108.863281 136.21875 108.863281 L 157.144531 92.292969 L 242.730469 108.394531 C 242.730469 108.394531 247.8125 170.789062 241.707031 186.683594 "/>
<path style=" stroke:none;fill-rule:nonzero;fill:rgb(15.689087%,8.628845%,9.799194%);fill-opacity:1;" d="M 217.230469 55.972656 C 193.101562 44.019531 176.320312 46.851562 165.058594 55.808594 C 154.988281 53.816406 143.734375 54.78125 131.144531 67.601562 C 123.890625 74.980469 113.984375 91.113281 113.480469 109.5625 C 113.09375 123.570312 112.371094 147.648438 121.023438 158.394531 C 119.058594 147.820312 118.976562 133.691406 121.867188 131.976562 C 125.6875 129.71875 132.980469 141.984375 132.980469 141.984375 C 132.980469 141.984375 129.992188 154.507812 137.34375 162.128906 C 133.796875 142.203125 141.734375 133.015625 152.042969 127.390625 C 163.652344 121.046875 178.765625 127.675781 188.886719 107.371094 C 195.890625 120.132812 218.785156 121.140625 231.921875 131.648438 C 239.890625 138.035156 243.761719 143.03125 238.539062 162.128906 C 244.710938 157.242188 245.566406 150.386719 245.949219 146.210938 C 249.125 111.929688 248.992188 71.679688 217.230469 55.972656 "/>
<path style=" stroke:none;fill-rule:nonzero;fill:rgb(15.689087%,8.628845%,9.799194%);fill-opacity:1;" d="M 258.300781 146.203125 C 259.117188 136.246094 261.105469 106.046875 253.367188 89.054688 C 240.8125 61.503906 208.644531 52.210938 208.644531 52.210938 C 208.644531 52.210938 198.589844 77.785156 210.554688 96.378906 C 222.527344 114.984375 244.710938 137.242188 244.710938 137.242188 C 244.710938 137.242188 255.4375 124.621094 258.300781 146.203125 "/>
<path style=" stroke:none;fill-rule:nonzero;fill:rgb(90.979004%,60.778809%,43.139648%);fill-opacity:1;" d="M 138.90625 159.378906 C 138.175781 147.996094 148.691406 137.382812 158.136719 133.792969 C 163.84375 131.621094 169.660156 129.519531 175.28125 126.910156 C 181.003906 124.253906 184.933594 121.578125 189.925781 117.972656 C 196.71875 129.683594 210.722656 132.996094 222.625 137.574219 C 227.464844 139.429688 231.972656 141.371094 234.757812 145.992188 C 237.488281 150.523438 236.902344 156.464844 237.984375 161.347656 C 239.210938 155.261719 240.917969 148.429688 238.816406 142.261719 C 236.925781 136.695312 231.171875 133 226.191406 130.25 C 215.109375 124.121094 203.175781 121.320312 193.269531 113.4375 C 191.46875 112.007812 189.753906 110.664062 188.210938 108.980469 C 188.640625 114.808594 180.339844 119.332031 175.699219 120.617188 C 169.191406 122.421875 162.1875 122.128906 155.609375 123.851562 C 142.917969 127.164062 133.890625 141.855469 135.980469 154.785156 C 136.320312 156.863281 137.789062 159.035156 138.074219 160.632812 "/>
<path style=" stroke:none;fill-rule:nonzero;fill:rgb(19.999695%,11.369324%,12.939453%);fill-opacity:1;" d="M 179.773438 105.074219 C 179.8125 108.4375 172.496094 110.898438 169.664062 112.035156 C 166.523438 113.296875 163.613281 115.027344 160.40625 116.113281 C 157.691406 117.035156 154.894531 117.179688 152.164062 117.992188 C 143.644531 120.511719 137.160156 126.5 135.003906 134.808594 C 134.222656 124.230469 144.179688 119.023438 152.496094 115.320312 C 157.238281 113.21875 162.101562 111.632812 166.609375 109.070312 C 168.613281 107.925781 170.75 106.472656 172.894531 105.707031 C 174.625 105.085938 176.429688 105.347656 178.207031 104.761719 "/>
<path style=" stroke:none;fill-rule:nonzero;fill:rgb(19.999695%,11.369324%,12.939453%);fill-opacity:1;" d="M 192.316406 106.007812 C 196.441406 109.078125 202.125 110.96875 206.738281 113.148438 C 211.539062 115.402344 216.585938 117.449219 221.164062 120.109375 C 227.832031 123.984375 236.164062 129.898438 241.179688 135.746094 C 238.9375 125.882812 228.789062 119.578125 220.855469 114.402344 C 212.753906 109.125 202.769531 108.179688 193.886719 106.007812 "/>
<path style=" stroke:none;fill-rule:nonzero;fill:rgb(19.999695%,11.369324%,12.939453%);fill-opacity:1;" d="M 225.867188 209.085938 C 227.109375 212.632812 228.519531 217.585938 229.257812 221.617188 C 229.789062 224.527344 229.582031 228.082031 231.21875 230.59375 C 231.101562 223.976562 230.589844 215.773438 226.808594 210.335938 "/>
<path style=" stroke:none;fill-rule:nonzero;fill:rgb(19.999695%,11.369324%,12.939453%);fill-opacity:1;" d="M 119.886719 171.496094 C 123.40625 178.8125 122.925781 189.011719 123.636719 196.9375 C 124.160156 202.734375 124.578125 208.628906 124.273438 214.503906 C 124.023438 219.394531 122.574219 223.773438 121.449219 228.519531 C 120.699219 231.703125 119.496094 237.746094 117.433594 240.074219 C 118.742188 233.648438 122.679688 227.640625 123.953125 220.988281 C 125.019531 215.410156 125.914062 210.308594 126.453125 204.703125 C 126.949219 199.515625 126.804688 194.230469 126.144531 189.042969 C 125.730469 185.734375 125.039062 181.847656 123.890625 178.683594 C 123.007812 176.25 121.105469 174.488281 120.195312 172.117188 "/>
<path style=" stroke:none;fill-rule:nonzero;fill:rgb(19.999695%,11.369324%,12.939453%);fill-opacity:1;" d="M 256.910156 236.34375 C 253.960938 224.898438 250.121094 211.875 248.449219 199.390625 C 247.78125 194.417969 247.386719 189.363281 247.191406 184.335938 C 247.015625 179.773438 248.496094 175.015625 248.125 170.644531 C 253.828125 191.527344 247.574219 215.199219 257.226562 235.085938 "/>
<path style=" stroke:none;fill-rule:nonzero;fill:rgb(19.999695%,11.369324%,12.939453%);fill-opacity:1;" d="M 130.859375 231.957031 C 131.441406 222.554688 133.0625 213.253906 133.054688 203.761719 C 133.046875 198.691406 132.21875 191.488281 133.59375 186.851562 C 137.152344 194.292969 137.347656 205.546875 136.511719 213.777344 C 135.941406 219.398438 135.03125 226.796875 132.109375 231.640625 "/>
<path style=" stroke:none;fill-rule:nonzero;fill:rgb(19.999695%,11.369324%,12.939453%);fill-opacity:1;" d="M 238.097656 231.328125 C 235.117188 228.589844 236.078125 219.84375 235.65625 215.980469 C 235.207031 211.804688 234.71875 207.527344 233.675781 203.542969 C 236.507812 208.03125 237.667969 214.25 238.105469 219.421875 C 238.367188 222.5 239.042969 229.261719 237.46875 231.640625 "/>
<path style=" stroke:none;fill-rule:nonzero;fill:rgb(19.999695%,11.369324%,12.939453%);fill-opacity:1;" d="M 141.519531 229.140625 C 141.117188 220.148438 144.28125 210.992188 144.339844 201.972656 C 144.039062 206.871094 145.902344 212.121094 145.914062 217.21875 C 145.917969 221.410156 145.070312 228.835938 141.203125 231.011719 "/>
<path style=" stroke:none;fill-rule:nonzero;fill:rgb(19.999695%,11.369324%,12.939453%);fill-opacity:1;" d="M 247.191406 233.210938 C 246.5 220.246094 244.878906 207.441406 244.667969 194.441406 C 246.960938 201.085938 248.144531 208.441406 248.136719 215.421875 C 248.125 221.480469 246.273438 226.863281 246.253906 232.890625 "/>
<path style=" stroke:none;fill-rule:nonzero;fill:rgb(19.999695%,11.369324%,12.939453%);fill-opacity:1;" d="M 179.601562 99.445312 C 173.308594 99.445312 166.433594 100.601562 160.6875 103.28125 C 153.851562 106.46875 149.601562 111.785156 143.550781 115.980469 C 137.347656 120.273438 131.621094 124.539062 127.96875 130.703125 C 127.542969 127.585938 131.371094 124.316406 133.085938 122.097656 C 136.019531 118.324219 139.308594 114.921875 142.6875 111.527344 C 147.738281 106.449219 154.617188 102.359375 160.988281 99.152344 C 164.679688 97.285156 169.160156 95.488281 173.402344 95.894531 C 176.332031 96.175781 178.601562 98.5 181.371094 99.152344 "/>
<path style=" stroke:none;fill-rule:nonzero;fill:rgb(19.999695%,11.369324%,12.939453%);fill-opacity:1;" d="M 193.777344 100.625 C 207.257812 100.242188 221.398438 109.75 232.550781 116.253906 C 238.074219 119.480469 240.257812 125.683594 244.308594 130.324219 C 243.375 124.300781 238.421875 116.582031 234.613281 111.820312 C 231.828125 108.339844 228.96875 104.789062 224.871094 102.910156 C 219.402344 100.398438 212.679688 99.417969 206.847656 98.03125 C 202.828125 97.082031 199.070312 97.082031 194.957031 97.082031 "/>
<path style=" stroke:none;fill-rule:nonzero;fill:rgb(19.999695%,11.369324%,12.939453%);fill-opacity:1;" d="M 175.757812 92.363281 C 163.1875 88.6875 152.847656 92.480469 142.449219 99.5 C 137.945312 102.539062 133.640625 107.144531 130.28125 111.320312 C 127.324219 114.988281 122.460938 120.183594 121.097656 124.753906 C 121.621094 120.320312 125.140625 114.890625 127.613281 111.238281 C 129.882812 107.875 132.363281 104.597656 135.515625 102.109375 C 140.277344 98.347656 145.628906 96.65625 151.179688 94.507812 C 155.285156 92.917969 159.195312 91.839844 163.425781 90.589844 C 165.964844 89.839844 171.0625 90.589844 172.949219 89.121094 C 168.746094 85.808594 160.402344 89.976562 155.964844 90.964844 C 150.460938 92.195312 144.9375 92.855469 139.445312 94.351562 C 134.449219 95.710938 130.167969 97.734375 126.0625 100.917969 C 122 104.039062 121.433594 108.105469 119.089844 112.296875 C 120.84375 97.589844 138.203125 89.234375 150.664062 86.097656 C 155.582031 84.859375 159.574219 83.492188 164.535156 84.773438 C 167.820312 85.617188 170.476562 88.140625 173.988281 88.226562 "/>
<path style=" stroke:none;fill-rule:nonzero;fill:rgb(19.999695%,11.369324%,12.939453%);fill-opacity:1;" d="M 198.503906 90.882812 C 211.824219 90.882812 229.285156 91.410156 239.332031 101.507812 C 243.351562 105.546875 245.074219 109.996094 247.308594 115.082031 C 249.351562 119.757812 250.511719 125.117188 253.164062 129.441406 C 253.085938 124.75 251.011719 118.449219 249.632812 113.964844 C 248.375 109.855469 245.941406 105.671875 243.695312 102.023438 C 240.738281 97.226562 236.730469 94.652344 231.214844 93.605469 C 221.296875 91.730469 211.613281 89.582031 201.492188 89.0625 C 204.664062 78.539062 232.175781 83.558594 238.753906 87.933594 C 246.722656 93.234375 254.117188 105.59375 257.464844 114.191406 C 250.96875 102.910156 247.191406 84.53125 232.542969 80.550781 C 221.753906 77.617188 207.078125 79.585938 198.3125 86.726562 C 202.878906 81.488281 206.734375 73.492188 214.445312 73.175781 C 220.574219 72.929688 227.816406 72.40625 233.652344 74.425781 C 242.839844 77.605469 246.628906 88.070312 254.300781 93.21875 C 248.074219 86.148438 241.441406 79.203125 234.246094 72.882812 C 230.058594 69.210938 222.351562 65.824219 216.585938 66.679688 C 212.582031 67.269531 207.15625 70.421875 203.984375 72.867188 C 199.570312 76.269531 198.101562 81.441406 194.074219 84.980469 "/>
<path style=" stroke:none;fill-rule:nonzero;fill:rgb(19.999695%,11.369324%,12.939453%);fill-opacity:1;" d="M 166.898438 79.375 C 163.570312 79.460938 157.542969 76.371094 153.609375 75.53125 C 149.808594 74.71875 145.484375 74.535156 141.710938 75.539062 C 133.722656 77.671875 124.960938 80.589844 119.375 86.882812 C 124.097656 77.707031 136.007812 70.851562 146.453125 71.695312 C 153.273438 72.25 158.324219 75.671875 164.445312 77.8125 C 161.570312 73.570312 154.417969 69.585938 149.765625 67.574219 C 145.023438 65.519531 139.800781 64.867188 134.777344 64.019531 C 141.699219 64.074219 148.347656 63.878906 154.789062 66.757812 C 156.535156 67.542969 158.839844 68.335938 160.410156 69.398438 C 162.386719 70.742188 163.6875 73.472656 165.921875 74.40625 C 163.609375 71.316406 161.890625 67.605469 159.199219 64.847656 C 157.09375 62.675781 154.191406 61.101562 152.203125 58.761719 C 156.039062 57.988281 161.597656 61.398438 163.941406 64.035156 "/>
<path style=" stroke:none;fill-rule:nonzero;fill:rgb(19.999695%,11.369324%,12.939453%);fill-opacity:1;" d="M 188.164062 79.960938 C 195.09375 69.441406 212.453125 58.953125 225.605469 62.863281 C 217.976562 60.941406 210.195312 59.402344 202.324219 61.664062 C 195.015625 63.757812 189.675781 68.328125 184.578125 73.671875 C 190.566406 66.644531 195.503906 59.140625 204.617188 56.355469 C 197.347656 55.570312 191.238281 62.015625 185.3125 64.882812 C 187.753906 62.027344 189.789062 58.734375 192.890625 56.644531 C 194.878906 55.304688 197.253906 54.707031 199.308594 53.703125 C 195.0625 52.242188 186.625 54.597656 183.367188 57.757812 C 182.046875 59.039062 180.773438 61.175781 180.253906 62.917969 C 179.699219 64.808594 180.59375 67.941406 179.304688 69.339844 "/>
<g clip-path="url(#clip2)" clip-rule="nonzero">
<path style=" stroke:none;fill-rule:nonzero;fill:rgb(6.669617%,16.859436%,29.798889%);fill-opacity:1;" d="M 328.867188 50.152344 L 187.746094 95.40625 L 46.621094 50.152344 L 190.359375 8.375 L 328.867188 50.152344 "/>
</g>
<path style=" stroke:none;fill-rule:nonzero;fill:rgb(8.239746%,20.779419%,37.249756%);fill-opacity:1;" d="M 125.167969 58.886719 C 125.167969 58.886719 131.234375 39.089844 184.554688 39.089844 C 237.878906 39.089844 242.207031 58.042969 242.207031 58.042969 L 257.226562 98.816406 C 257.226562 98.816406 220.167969 102.207031 186.492188 102.207031 C 152.820312 102.207031 110.117188 95.410156 110.117188 95.410156 L 125.167969 58.886719 "/>
<path style=" stroke:none;fill-rule:nonzero;fill:rgb(76.078796%,54.508972%,17.248535%);fill-opacity:1;" d="M 279.671875 92.460938 L 272.554688 92.460938 L 272.554688 30.386719 C 272.554688 30.386719 279.671875 27.660156 279.671875 33.113281 C 279.671875 38.558594 279.671875 92.460938 279.671875 92.460938 "/>
<path style=" stroke:none;fill-rule:nonzero;fill:rgb(76.078796%,54.508972%,17.248535%);fill-opacity:1;" d="M 289.488281 100.664062 C 289.488281 113.992188 284.453125 126.808594 274.242188 137.15625 C 279.570312 117.90625 262.738281 113.992188 262.738281 100.664062 C 262.738281 92.613281 272.402344 84.871094 276.117188 86.574219 C 283.449219 83.992188 289.488281 91.316406 289.488281 100.664062 "/>
</g>
</svg>
