<?xml version="1.0" encoding="UTF-8"?>
<svg xmlns="http://www.w3.org/2000/svg" xmlns:xlink="http://www.w3.org/1999/xlink" width="810pt" height="809.999993pt" viewBox="0 0 810 809.999993" version="1.2">
<defs>
<clipPath id="clip1">
  <path d="M 211.46875 223.078125 L 598.410156 223.078125 L 598.410156 466 L 211.46875 466 Z M 211.46875 223.078125 "/>
</clipPath>
<clipPath id="clip2">
  <path d="M 211.46875 344 L 405 344 L 405 586.746094 L 211.46875 586.746094 Z M 211.46875 344 "/>
</clipPath>
<clipPath id="clip3">
  <path d="M 404 344 L 598.410156 344 L 598.410156 586.746094 L 404 586.746094 Z M 404 344 "/>
</clipPath>
<clipPath id="clip4">
  <path d="M 211.46875 465 L 598.410156 465 L 598.410156 586.746094 L 211.46875 586.746094 Z M 211.46875 465 "/>
</clipPath>
</defs>
<g id="surface1">
<g clip-path="url(#clip1)" clip-rule="nonzero">
<path style=" stroke:none;fill-rule:nonzero;fill:rgb(87.059021%,55.288696%,16.468811%);fill-opacity:1;" d="M 404.9375 223.828125 L 211.46875 344.875 L 404.9375 465.339844 L 598.410156 344.875 Z M 404.9375 223.828125 "/>
</g>
<path style=" stroke:none;fill-rule:nonzero;fill:rgb(95.689392%,95.689392%,95.689392%);fill-opacity:1;" d="M 509.785156 238.886719 L 236.957031 238.886719 L 236.957031 479.816406 L 568.289062 479.816406 L 568.289062 297.382812 Z M 509.785156 238.886719 "/>
<path style=" stroke:none;fill-rule:nonzero;fill:rgb(86.669922%,30.589294%,30.589294%);fill-opacity:1;" d="M 404.9375 375.570312 C 400.304688 375.570312 396.828125 377.304688 393.351562 381.359375 C 390.457031 385.414062 388.71875 390.625 388.71875 396.996094 C 388.71875 402.210938 389.875 406.84375 392.191406 410.320312 C 394.511719 413.792969 397.40625 415.53125 401.460938 415.53125 C 406.09375 415.53125 410.152344 413.210938 414.203125 408.582031 C 418.257812 403.945312 419.996094 398.15625 419.996094 390.625 C 419.996094 386.570312 418.257812 382.515625 415.359375 379.621094 C 413.046875 377.304688 409.574219 375.570312 404.9375 375.570312 Z M 404.9375 375.570312 "/>
<path style=" stroke:none;fill-rule:nonzero;fill:rgb(86.669922%,30.589294%,30.589294%);fill-opacity:1;" d="M 404.9375 289.273438 C 347.011719 289.273438 300.09375 336.1875 300.09375 394.105469 C 300.09375 452.019531 347.011719 498.929688 404.9375 498.929688 C 462.863281 498.929688 509.785156 452.015625 509.785156 394.101562 C 509.785156 336.183594 462.863281 289.273438 404.9375 289.273438 Z M 457.652344 416.691406 C 451.277344 425.957031 443.167969 430.011719 433.902344 430.011719 C 426.371094 430.011719 421.734375 427.113281 418.839844 420.746094 C 413.628906 427.117188 407.835938 430.011719 400.308594 430.011719 C 392.777344 430.011719 386.402344 427.113281 381.191406 420.746094 C 375.980469 414.371094 373.082031 406.265625 373.082031 395.839844 C 373.082031 385.417969 375.980469 376.730469 382.347656 370.355469 C 388.140625 363.984375 395.671875 360.511719 403.78125 360.511719 C 411.890625 360.511719 417.683594 362.828125 421.160156 368.039062 L 421.160156 366.882812 C 421.160156 365.726562 421.738281 364.566406 422.894531 363.410156 C 424.054688 362.25 425.214844 362.25 426.371094 362.25 L 432.164062 362.25 C 433.320312 362.25 434.480469 362.832031 435.0625 363.410156 C 435.640625 363.988281 436.21875 365.144531 436.21875 366.304688 L 431.582031 403.375 C 431.003906 406.273438 431.003906 409.164062 431.003906 411.484375 C 431.003906 415.539062 432.160156 417.273438 435.058594 417.273438 C 439.695312 417.273438 443.75 414.375 448.378906 408.007812 C 452.433594 401.636719 454.753906 394.109375 454.753906 385.421875 C 454.753906 372.683594 450.117188 362.253906 440.851562 354.148438 C 431.582031 346.039062 420.574219 341.984375 407.253906 341.984375 C 392.769531 341.984375 380.609375 347.195312 370.761719 357.039062 C 360.914062 366.886719 356.277344 379.050781 356.277344 393.527344 C 356.277344 406.847656 360.914062 419.011719 370.179688 428.859375 C 379.445312 438.703125 392.191406 443.914062 408.988281 443.914062 C 419.417969 443.914062 429.84375 441.597656 440.269531 437.542969 L 443.746094 435.804688 C 444.902344 435.226562 446.644531 435.226562 447.800781 435.804688 C 448.957031 436.386719 450.117188 437.542969 450.699219 438.703125 L 451.855469 441.023438 C 452.433594 442.179688 452.433594 443.917969 451.855469 445.074219 C 451.273438 446.234375 450.117188 447.394531 448.957031 447.972656 L 444.902344 449.710938 C 433.316406 454.347656 421.152344 456.660156 408.988281 456.660156 C 388.136719 456.660156 371.917969 450.289062 359.75 438.128906 C 347.585938 425.964844 341.792969 410.90625 341.792969 393.53125 C 341.792969 375.578125 348.167969 360.519531 360.910156 348.355469 C 373.648438 336.191406 389.289062 330.398438 407.25 330.398438 C 424.046875 330.398438 438.527344 335.609375 450.113281 346.039062 C 461.699219 356.464844 467.492188 369.785156 467.492188 385.421875 C 467.5 397.578125 464.601562 407.425781 457.652344 416.691406 Z M 457.652344 416.691406 "/>
<path style=" stroke:none;fill-rule:nonzero;fill:rgb(98.039246%,45.878601%,39.219666%);fill-opacity:1;" d="M 509.785156 238.886719 L 509.785156 297.382812 L 568.289062 297.382812 Z M 509.785156 238.886719 "/>
<g clip-path="url(#clip2)" clip-rule="nonzero">
<path style=" stroke:none;fill-rule:nonzero;fill:rgb(98.81897%,75.689697%,32.548523%);fill-opacity:1;" d="M 404.9375 465.339844 L 211.46875 586.386719 L 211.46875 344.875 Z M 404.9375 465.339844 "/>
</g>
<g clip-path="url(#clip3)" clip-rule="nonzero">
<path style=" stroke:none;fill-rule:nonzero;fill:rgb(98.81897%,75.689697%,32.548523%);fill-opacity:1;" d="M 598.410156 344.875 L 598.410156 586.386719 L 404.9375 465.339844 Z M 598.410156 344.875 "/>
</g>
<g clip-path="url(#clip4)" clip-rule="nonzero">
<path style=" stroke:none;fill-rule:nonzero;fill:rgb(87.059021%,55.288696%,16.468811%);fill-opacity:1;" d="M 598.410156 586.386719 L 211.46875 586.386719 L 404.9375 465.339844 Z M 598.410156 586.386719 "/>
</g>
</g>
</svg>
