<?xml version="1.0" encoding="UTF-8"?>
<svg xmlns="http://www.w3.org/2000/svg" xmlns:xlink="http://www.w3.org/1999/xlink" width="810pt" height="809.999993pt" viewBox="0 0 810 809.999993" version="1.2">
<defs>
<clipPath id="clip1">
  <path d="M 205.183594 468 L 604.933594 468 L 604.933594 615.414062 L 205.183594 615.414062 Z M 205.183594 468 "/>
</clipPath>
<clipPath id="clip2">
  <path d="M 278 194.664062 L 532 194.664062 L 532 553 L 278 553 Z M 278 194.664062 "/>
</clipPath>
</defs>
<g id="surface1">
<g clip-path="url(#clip1)" clip-rule="nonzero">
<path style=" stroke:none;fill-rule:nonzero;fill:rgb(98.81897%,75.689697%,32.548523%);fill-opacity:1;" d="M 552.332031 468.152344 L 257.78125 468.152344 L 205.183594 615.414062 L 604.933594 615.414062 Z M 552.332031 468.152344 "/>
</g>
<g clip-path="url(#clip2)" clip-rule="nonzero">
<path style=" stroke:none;fill-rule:nonzero;fill:rgb(86.669922%,30.589294%,30.589294%);fill-opacity:1;" d="M 405.058594 194.667969 C 335.34375 194.667969 278.820312 250.414062 278.820312 319.164062 C 278.820312 394.523438 405.058594 552.300781 405.058594 552.300781 C 405.058594 552.300781 531.292969 394.523438 531.292969 319.164062 C 531.292969 250.414062 474.773438 194.667969 405.058594 194.667969 Z M 405.058594 384.003906 C 370.195312 384.003906 341.9375 355.738281 341.9375 320.890625 C 341.9375 286.042969 370.207031 257.777344 405.058594 257.777344 C 439.910156 257.777344 468.175781 286.042969 468.175781 320.890625 C 468.175781 355.738281 439.917969 384.003906 405.058594 384.003906 Z M 405.058594 384.003906 "/>
</g>
</g>
</svg>
