<?xml version="1.0" encoding="UTF-8"?>
<svg xmlns="http://www.w3.org/2000/svg" xmlns:xlink="http://www.w3.org/1999/xlink" width="810pt" height="809.999993pt" viewBox="0 0 810 809.999993" version="1.2">
<g id="surface1">
<path style=" stroke:none;fill-rule:nonzero;fill:rgb(98.81897%,75.689697%,32.548523%);fill-opacity:1;" d="M 429.214844 257.039062 C 498.371094 257.039062 554.472656 313.144531 554.472656 382.296875 L 541.949219 382.296875 C 541.949219 320.058594 491.453125 269.566406 429.214844 269.566406 Z M 429.214844 294.617188 C 477.625 294.617188 516.898438 333.890625 516.898438 382.296875 L 504.371094 382.296875 C 504.371094 340.804688 470.707031 307.140625 429.214844 307.140625 Z M 429.214844 332.195312 C 456.878906 332.195312 479.320312 354.636719 479.320312 382.296875 L 466.792969 382.296875 C 466.792969 361.550781 449.960938 344.71875 429.214844 344.71875 Z M 429.214844 332.195312 "/>
<path style=" stroke:none;fill-rule:evenodd;fill:rgb(86.669922%,30.589294%,30.589294%);fill-opacity:1;" d="M 465.164062 459.277344 C 455.179688 467.367188 442.003906 458.496094 417.605469 438.859375 L 364.304688 386.277344 C 352.886719 372.25 342.839844 357.570312 351.84375 346.871094 L 368.609375 332.390625 L 375.199219 327.105469 C 380.15625 322.082031 379.699219 314.382812 375.070312 309.882812 L 312.570312 248.101562 C 307.742188 243.207031 300.109375 243.40625 295.347656 248.167969 L 290.585938 253.710938 L 276.101562 271.847656 C 264.882812 287.308594 243.808594 352.15625 346.886719 456.472656 C 453.941406 564.703125 523.683594 545.523438 539.273438 532.605469 L 562.757812 513.6875 C 567.71875 508.597656 567.261719 500.964844 562.695312 496.398438 L 500.128906 434.554688 C 495.304688 429.789062 487.671875 429.921875 482.972656 434.683594 Z M 465.164062 459.277344 "/>
</g>
</svg>
