<?xml version="1.0" encoding="UTF-8"?>
<svg xmlns="http://www.w3.org/2000/svg" xmlns:xlink="http://www.w3.org/1999/xlink" width="375pt" height="374.999991pt" viewBox="0 0 375 374.999991" version="1.2">
<defs>
<clipPath id="clip1">
  <path d="M 39.875 39.875 L 335.375 39.875 L 335.375 335.375 L 39.875 335.375 Z M 39.875 39.875 "/>
</clipPath>
</defs>
<g id="surface1">
<g clip-path="url(#clip1)" clip-rule="nonzero">
<path style=" stroke:none;fill-rule:nonzero;fill:rgb(19.60907%,74.508667%,65.098572%);fill-opacity:1;" d="M 39.875 187.753906 C 39.875 106.09375 106.09375 39.875 187.753906 39.875 C 269.410156 39.875 335.632812 106.09375 335.632812 187.753906 C 335.632812 269.410156 269.410156 335.632812 187.753906 335.632812 C 106.09375 335.632812 39.875 269.410156 39.875 187.753906 Z M 39.875 187.753906 "/>
</g>
<path style=" stroke:none;fill-rule:nonzero;fill:rgb(100%,100%,100%);fill-opacity:1;" d="M 268.515625 163.015625 L 212.191406 163.015625 L 212.191406 107.046875 C 212.191406 104.664062 210.28125 102.757812 207.898438 102.757812 L 167.308594 102.757812 C 164.925781 102.757812 163.015625 104.664062 163.015625 107.046875 L 163.015625 163.015625 L 107.046875 163.015625 C 104.664062 163.015625 102.757812 164.925781 102.757812 167.308594 L 102.757812 208.554688 C 102.757812 210.9375 104.664062 212.847656 107.046875 212.847656 L 163.015625 212.847656 L 163.015625 268.515625 C 163.015625 270.902344 164.925781 272.808594 167.308594 272.808594 L 207.898438 272.808594 C 210.28125 272.808594 212.191406 270.902344 212.191406 268.515625 L 212.191406 212.847656 L 268.515625 212.847656 C 270.902344 212.847656 272.808594 210.9375 272.808594 208.554688 L 272.808594 167.308594 C 272.808594 164.925781 270.839844 163.015625 268.515625 163.015625 "/>
</g>
</svg>
