<?xml version="1.0" encoding="UTF-8"?>
<svg xmlns="http://www.w3.org/2000/svg" xmlns:xlink="http://www.w3.org/1999/xlink" width="375pt" height="374.999991pt" viewBox="0 0 375 374.999991" version="1.2">
<defs>
<clipPath id="clip1">
  <path d="M 112.5 112.5 L 262.5 112.5 L 262.5 262.5 L 112.5 262.5 Z M 112.5 112.5 "/>
</clipPath>
</defs>
<g id="surface1">
<g clip-path="url(#clip1)" clip-rule="nonzero">
<path style=" stroke:none;fill-rule:nonzero;fill:rgb(100%,100%,100%);fill-opacity:1;" d="M 232.683594 218.808594 C 234.988281 221.136719 234.933594 224.851562 232.5625 227.105469 L 226.652344 232.710938 C 224.28125 234.972656 220.5 234.90625 218.195312 232.605469 L 187.5 201.683594 L 156.804688 232.605469 C 154.5 234.921875 150.71875 234.972656 148.347656 232.710938 L 142.4375 227.105469 C 140.066406 224.851562 140.011719 221.136719 142.316406 218.820312 L 173.410156 187.5 L 142.316406 156.179688 C 140.011719 153.863281 140.066406 150.144531 142.4375 147.894531 L 148.347656 142.277344 C 150.71875 140.027344 154.5 140.078125 156.804688 142.394531 L 187.5 173.316406 L 218.195312 142.394531 C 220.5 140.078125 224.28125 140.027344 226.652344 142.289062 L 232.5625 147.894531 C 234.933594 150.160156 234.988281 153.863281 232.683594 156.191406 L 201.589844 187.5 Z M 187.5 112.5 C 146.085938 112.5 112.5 146.070312 112.5 187.5 C 112.5 228.914062 146.085938 262.5 187.5 262.5 C 228.929688 262.5 262.5 228.914062 262.5 187.5 C 262.5 146.070312 228.929688 112.5 187.5 112.5 "/>
</g>
</g>
</svg>
