<?xml version="1.0" encoding="UTF-8"?>
<svg xmlns="http://www.w3.org/2000/svg" xmlns:xlink="http://www.w3.org/1999/xlink" width="375pt" height="374.999991pt" viewBox="0 0 375 374.999991" version="1.2">
<defs>
<clipPath id="clip1">
  <path d="M 112.5 112.5 L 262.5 112.5 L 262.5 262.5 L 112.5 262.5 Z M 112.5 112.5 "/>
</clipPath>
</defs>
<g id="surface1">
<path style=" stroke:none;fill-rule:nonzero;fill:rgb(100%,100%,100%);fill-opacity:1;" d="M 202.976562 172.023438 L 197.292969 166.34375 L 163.203125 200.433594 L 174.566406 211.796875 L 208.65625 177.707031 L 202.976562 172.023438 "/>
<g clip-path="url(#clip1)" clip-rule="nonzero">
<path style=" stroke:none;fill-rule:nonzero;fill:rgb(100%,100%,100%);fill-opacity:1;" d="M 219.644531 222.320312 L 155.355469 222.320312 C 155 222.320312 154.65625 222.25 154.332031 222.113281 C 153.996094 221.976562 153.703125 221.777344 153.453125 221.535156 C 153.242188 221.304688 153.085938 221.054688 152.949219 220.785156 C 152.917969 220.71875 152.898438 220.65625 152.867188 220.585938 C 152.761719 220.292969 152.6875 220 152.6875 219.683594 C 152.6875 219.675781 152.679688 219.652344 152.679688 219.644531 C 152.679688 219.613281 152.699219 219.578125 152.699219 219.546875 C 152.699219 219.390625 152.699219 219.234375 152.742188 219.089844 L 156.789062 199.878906 C 156.8125 199.773438 156.863281 199.667969 156.90625 199.574219 C 156.925781 199.492188 156.949219 199.417969 156.980469 199.34375 C 157.113281 199.0625 157.28125 198.800781 157.503906 198.570312 C 157.503906 198.558594 157.511719 198.550781 157.523438 198.539062 L 199.1875 156.875 C 201.71875 154.34375 205.078125 152.949219 208.65625 152.949219 C 212.234375 152.949219 215.605469 154.34375 218.125 156.875 C 220.65625 159.40625 222.050781 162.765625 222.050781 166.34375 C 222.050781 169.921875 220.65625 173.28125 218.125 175.8125 L 176.972656 216.964844 L 219.644531 216.964844 C 221.117188 216.964844 222.320312 218.167969 222.320312 219.644531 C 222.320312 221.117188 221.117188 222.320312 219.644531 222.320312 Z M 187.5 112.5 C 146.140625 112.5 112.5 146.140625 112.5 187.5 C 112.5 228.859375 146.140625 262.5 187.5 262.5 C 228.859375 262.5 262.5 228.859375 262.5 187.5 C 262.5 146.140625 228.859375 112.5 187.5 112.5 "/>
</g>
<path style=" stroke:none;fill-rule:nonzero;fill:rgb(100%,100%,100%);fill-opacity:1;" d="M 214.339844 172.023438 C 215.855469 170.507812 216.691406 168.488281 216.691406 166.34375 C 216.691406 164.1875 215.855469 162.179688 214.339844 160.660156 C 211.304688 157.628906 206.007812 157.628906 202.976562 160.660156 L 201.082031 162.554688 L 212.445312 173.917969 L 214.339844 172.023438 "/>
<path style=" stroke:none;fill-rule:nonzero;fill:rgb(100%,100%,100%);fill-opacity:1;" d="M 161.019531 205.820312 L 158.832031 216.167969 L 169.179688 213.980469 L 161.019531 205.820312 "/>
</g>
</svg>
